<svg width="20" height="20" viewBox="0 0 20 20" fill="none" xmlns="http://www.w3.org/2000/svg">
<ellipse cx="6.77773" cy="6.77767" rx="6.77773" ry="6.77767" transform="matrix(0.965927 0.258816 0.509497 -0.860472 0 13.0551)" fill="#00D4E6"/>
<ellipse cx="5.03329" cy="5.03335" rx="5.03329" ry="5.03335" transform="matrix(0.258822 0.965925 0.99994 0.0109952 5.41895 0.668701)" fill="#FFC300"/>
<ellipse cx="5.98427" cy="5.98421" rx="5.98427" ry="5.98421" transform="matrix(0.866028 -0.499995 -0.248186 -0.968712 9.11133 19.3313)" fill="#8759F2"/>
<path d="M11.1963 4.74458C12.9859 3.71136 14.8239 3.81437 16.1504 4.81977C16.316 5.00822 16.4635 5.20738 16.5938 5.41547C16.6173 5.49032 16.6399 5.56541 16.6602 5.64106C17.3796 8.32615 15.7094 10.4783 12.9297 10.4477C11.1669 10.4283 9.38202 9.53492 8.12793 8.19965C8.80993 6.7591 9.87387 5.50811 11.1963 4.74458Z" fill="#FF3E80"/>
</svg>
