<svg width="20" height="14" viewBox="0 0 20 14" fill="none" xmlns="http://www.w3.org/2000/svg">
<path d="M12.0764 2.19335C10.9778 2.9323 9.69419 3.07827 5.05819 1.72013C2.07637 0.846486 0.00364563 3.10339 9.27261e-06 6.07922C-0.00180891 7.5564 0.263646 8.98589 0.893464 10.2206C1.64583 11.6942 4.77237 14.7111 5.24001 12.131C7.16728 1.50172 7.56728 9.25526 9.60364 9.10966C10.9825 9.01101 11.2764 -0.209162 14.5127 12.5678C15.3931 16.0438 20 9.91486 20 6.07922C20 4.66065 19.7593 3.28612 19.1738 2.08851C17.7127 -0.900793 14.2945 0.700879 12.0764 2.19335Z" fill="url(#paint0_radial_3732_80565)"/>
<mask id="mask0_3732_80565" style="mask-type:alpha" maskUnits="userSpaceOnUse" x="0" y="0" width="20" height="14">
<path d="M12.0764 2.19335C10.9778 2.9323 9.69419 3.07827 5.05819 1.72013C2.07637 0.846486 0.00364563 3.10339 9.27261e-06 6.07922C-0.00180891 7.5564 0.263646 8.98589 0.893464 10.2206C1.64583 11.6942 4.77237 14.7111 5.24001 12.131C7.16728 1.50172 7.56728 9.25526 9.60364 9.10966C10.9825 9.01101 11.2764 -0.209162 14.5127 12.5678C15.3931 16.0438 20 9.91486 20 6.07922C20 4.66065 19.7593 3.28612 19.1738 2.08851C17.7127 -0.900793 14.2945 0.700879 12.0764 2.19335Z" fill="white"/>
</mask>
<g mask="url(#mask0_3732_80565)">
<path d="M2.19174 12.9687C2.19174 12.9687 4.04629 6.63478 8.95538 11.6946C13.2077 16.0774 18.8826 10.1293 18.8826 10.1293L18.519 15.626L9.68265 17.4825H0.446289L2.19174 12.9687Z" fill="url(#paint1_linear_3732_80565)"/>
<path d="M6.40995 -0.71795C6.40995 -0.71795 2.11905 -0.71795 2.95541 5.17912C3.34305 7.91179 2.83577 11.0336 -1.5784 12.0841C-5.99258 13.1347 -3.06968 -1.51515 -3.06968 -1.51515L8.2645 -7.92548L6.40995 -0.71795Z" fill="url(#paint2_radial_3732_80565)"/>
<path d="M10.0077 -1.6048C10.0077 -1.6048 9.57027 5.29841 13.8488 5.15389C18.1274 5.00974 20.0015 6.79925 20.0139 9.89666C20.0263 12.9941 25.7423 3.52601 25.7423 3.52601L18.2135 -5.10809L10.0077 -1.6048Z" fill="url(#paint3_radial_3732_80565)"/>
</g>
<circle cx="8.25046" cy="12.6129" r="0.769993" fill="#E05500"/>
<circle cx="11.3296" cy="12.6129" r="0.769993" fill="#E05500"/>
<defs>
<radialGradient id="paint0_radial_3732_80565" cx="0" cy="0" r="1" gradientUnits="userSpaceOnUse" gradientTransform="translate(10.0002 7.00007) rotate(-0.0175754) scale(17.8569 17.8756)">
<stop stop-color="#FF9900"/>
<stop offset="1" stop-color="#C41700"/>
</radialGradient>
<linearGradient id="paint1_linear_3732_80565" x1="-1.16025" y1="12.7986" x2="23.8403" y2="14.5772" gradientUnits="userSpaceOnUse">
<stop stop-color="#FF9900"/>
<stop offset="1" stop-color="#C41700"/>
</linearGradient>
<radialGradient id="paint2_radial_3732_80565" cx="0" cy="0" r="1" gradientUnits="userSpaceOnUse" gradientTransform="translate(2.12312 2.10628) rotate(-0.0435159) scale(10.9669 27.1818)">
<stop stop-color="#FF9900"/>
<stop offset="1" stop-color="#C41700"/>
</radialGradient>
<radialGradient id="paint3_radial_3732_80565" cx="0" cy="0" r="1" gradientUnits="userSpaceOnUse" gradientTransform="translate(17.8689 2.70554) rotate(-0.026438) scale(14.0598 21.1717)">
<stop stop-color="#FF9900"/>
<stop offset="1" stop-color="#C41700"/>
</radialGradient>
</defs>
</svg>
