<svg width="20" height="20" viewBox="0 0 20 20" fill="none" xmlns="http://www.w3.org/2000/svg">
<path fill-rule="evenodd" clip-rule="evenodd" d="M17.6538 6.04656L19.2656 7.69478L15.7812 11.2578L19.5342 15.0956L17.9224 16.7438L12.5576 11.2578L17.6538 6.04656Z" fill="#55C6FF"/>
<path fill-rule="evenodd" clip-rule="evenodd" d="M13.4883 2.34607L11.9117 0.73429L8.50346 4.21858L4.83251 0.46567L3.25593 2.07745L8.50346 7.44214L13.4883 2.34607Z" fill="#55C6FF"/>
<path fill-rule="evenodd" clip-rule="evenodd" d="M19.0782 8.03063C19.5872 7.52167 19.5872 6.69649 19.0782 6.18753L18.6833 5.79258L14.2052 5.74213L14.0754 1.18484L13.8121 0.921537C13.3031 0.41258 12.4779 0.412579 11.969 0.921536L11.971 7.9763L19.0782 8.03063Z" fill="#9A71FF"/>
<path d="M14.0752 1.97502L14.0753 1.18517L13.812 0.921867C13.303 0.41291 12.4778 0.412909 11.9688 0.921867L11.9688 4.08142L14.0752 1.97502Z" fill="#584DE2"/>
<path d="M18.0254 5.92443L18.8153 5.92435L19.0786 6.18765C19.5875 6.6966 19.5875 7.52179 19.0786 8.03074L15.9189 8.03082L18.0254 5.92443Z" fill="#584DE2"/>
<path fill-rule="evenodd" clip-rule="evenodd" d="M6.04687 17.6538L7.69512 19.2656L11.2582 15.7813L15.0961 19.5342L16.7443 17.9224L11.2582 12.5577L6.04687 17.6538Z" fill="#51E5A5"/>
<path fill-rule="evenodd" clip-rule="evenodd" d="M2.34621 13.4885L0.734404 11.912L4.21876 8.50379L0.465779 4.83292L2.07759 3.25637L7.44238 8.5038L2.34621 13.4885Z" fill="#51E5A5"/>
<path fill-rule="evenodd" clip-rule="evenodd" d="M8.03117 19.0783C7.5222 19.5872 6.697 19.5872 6.18804 19.0783L5.79308 18.6833L5.74263 14.2053L1.18525 14.0756L0.921943 13.8123C0.412975 13.3033 0.412975 12.4781 0.921942 11.9692L7.97685 11.9712L8.03117 19.0783Z" fill="#F4E12F"/>
<path d="M1.97462 14.0755L1.18474 14.0755L0.92144 13.8122C0.412473 13.3033 0.412473 12.4781 0.92144 11.9691L4.08105 11.9691L1.97462 14.0755Z" fill="#24B57E"/>
<path d="M5.92481 18.0249L5.92473 18.8147L6.18804 19.078C6.697 19.587 7.5222 19.587 8.03117 19.078L8.03125 15.9185L5.92481 18.0249Z" fill="#24B57E"/>
</svg>
