<svg width="20" height="16" viewBox="0 0 20 16" fill="none" xmlns="http://www.w3.org/2000/svg">
<mask id="mask0_3732_80523" style="mask-type:alpha" maskUnits="userSpaceOnUse" x="5" y="2" width="11" height="11">
<circle cx="4.99859" cy="4.99859" r="4.99859" transform="matrix(0.707101 -0.707112 0.707101 0.707112 3.16016 7.80914)" fill="#C4C4C4"/>
</mask>
<g mask="url(#mask0_3732_80523)">
<circle cx="7.37166" cy="7.37166" r="7.37166" transform="matrix(0.707101 -0.707112 0.707101 0.707112 1.52734 6.17706)" fill="#FFEAD8"/>
<circle cx="7.37166" cy="7.37166" r="7.37166" transform="matrix(0.707101 -0.707113 0.707101 0.707113 5.16992 2.39276)" fill="white"/>
<path d="M13.9423 20.71C13.917 20.6083 13.7559 20.4584 13.459 20.2607C13.3786 20.1984 13.264 20.1137 13.1158 20.0063C12.9674 19.8989 12.8327 19.7999 12.7119 19.7094C12.5909 19.619 12.4776 19.5314 12.3717 19.4467C12.3547 19.4297 12.3017 19.3803 12.2127 19.2982C12.1236 19.2163 12.0484 19.1555 11.9868 19.1158C11.9254 19.0764 11.8649 19.0566 11.8056 19.0566C11.7208 19.0566 11.6149 19.1372 11.4878 19.2982C11.3606 19.4594 11.244 19.6345 11.138 19.8241C11.0321 20.0135 10.9197 20.1886 10.8011 20.3498C10.6823 20.5109 10.5848 20.5915 10.5085 20.5915C10.4703 20.5915 10.4226 20.5772 10.3654 20.5492C10.3082 20.5209 10.2647 20.4967 10.2349 20.4772C10.2053 20.4573 10.1545 20.4178 10.0824 20.3583C10.0102 20.2989 9.96997 20.2664 9.96151 20.2607C9.38069 19.831 8.88256 19.3391 8.46702 18.7853C8.05162 18.2312 7.6827 17.5671 7.3605 16.7925C7.35627 16.7812 7.33183 16.7275 7.28735 16.6314C7.2428 16.5353 7.21311 16.4675 7.19827 16.4279C7.18344 16.3883 7.16542 16.3304 7.14425 16.2541C7.12309 16.1778 7.11247 16.1142 7.11247 16.0633C7.11247 15.9616 7.1729 15.8315 7.29374 15.6732C7.41456 15.515 7.54603 15.3651 7.68801 15.2239C7.8301 15.0827 7.96143 14.9271 8.08229 14.7576C8.20311 14.588 8.26352 14.4467 8.26352 14.3337C8.26352 14.2546 8.24868 14.174 8.21904 14.092C8.18937 14.0099 8.14379 13.9097 8.08229 13.7909C8.02077 13.6722 7.98368 13.6016 7.97094 13.5789C7.90741 13.4377 7.84177 13.2865 7.77385 13.1254C7.70594 12.9643 7.63181 12.7847 7.55122 12.5869C7.47069 12.3891 7.40714 12.2364 7.36045 12.129C7.21215 11.7334 7.09982 11.5185 7.02348 11.4847C6.99379 11.4677 6.94924 11.4592 6.88994 11.4592C6.77541 11.4592 6.62599 11.4874 6.44157 11.544C6.25709 11.6005 6.11193 11.6598 6.00592 11.7221C5.79393 11.8407 5.56925 12.1855 5.3318 12.7564C5.11558 13.2877 4.60742 14.347 4.60742 14.867C4.60742 15.0195 4.61484 15.1679 4.62967 15.3121C4.64451 15.4563 4.67102 15.6188 4.70922 15.7998C4.74735 15.9806 4.77811 16.115 4.80137 16.2025C4.82465 16.2901 4.8681 16.4469 4.93172 16.6731C4.99525 16.8992 5.03345 17.0377 5.04617 17.0886C5.19454 17.6426 5.37049 18.1372 5.57397 18.5725C5.90876 19.2961 6.36564 20.0438 6.94434 20.8155C7.52306 21.5871 8.08376 22.1962 8.62647 22.6428C8.9529 22.9141 9.32398 23.1487 9.73943 23.3467C9.7776 23.3635 9.88143 23.4143 10.051 23.4993C10.2206 23.5841 10.3382 23.6421 10.4039 23.6732C10.4696 23.7043 10.5704 23.7453 10.7059 23.7963C10.8418 23.8472 10.9636 23.8825 11.0717 23.9025C11.1798 23.922 11.2911 23.932 11.4055 23.932C11.7955 23.932 12.59 23.2544 12.9885 22.9661C13.4166 22.6497 13.6751 22.35 13.7642 22.0671C13.811 21.9259 13.8553 21.7323 13.8977 21.4864C13.9403 21.2405 13.9614 21.0413 13.9614 20.8886C13.9615 20.8092 13.9551 20.75 13.9423 20.71Z" fill="#FF7800"/>
<path d="M6.29935 8.66869L3.9073 5.99099L1.55097 7.4905C1.63427 9.02571 1.87229 12.239 2.1579 12.8102C2.44352 13.3814 6.56116 15.5236 8.58428 16.5233C10.4051 15.3689 14.0895 13.0458 14.2609 12.9887C14.4323 12.9316 13.5231 12.3461 13.047 12.0604L10.5479 12.6317L6.29935 8.66869Z" fill="#FF7800"/>
</g>
<mask id="mask1_3732_80523" style="mask-type:alpha" maskUnits="userSpaceOnUse" x="5" y="2" width="11" height="11">
<circle cx="4.99859" cy="4.99859" r="4.99859" transform="matrix(0.707101 -0.707112 0.707101 0.707112 3.16016 7.80914)" fill="#C4C4C4"/>
</mask>
<g mask="url(#mask1_3732_80523)">
<rect width="12.3198" height="0.201963" transform="matrix(0.707101 -0.707112 0.707101 0.707112 2.66016 9.45172)" fill="white"/>
<rect width="12.3198" height="0.201963" transform="matrix(0.707101 -0.707112 0.707101 0.707112 3.30273 10.0941)" fill="white"/>
<rect width="12.3198" height="0.201963" transform="matrix(0.707101 -0.707112 0.707101 0.707112 3.87402 10.6652)" fill="white"/>
<rect width="12.3198" height="0.201963" transform="matrix(0.707101 -0.707112 0.707101 0.707112 4.5166 11.308)" fill="white"/>
<rect width="12.3198" height="0.201963" transform="matrix(0.707101 -0.707112 0.707101 0.707112 5.08789 11.8786)" fill="white"/>
<rect width="12.3198" height="0.201963" transform="matrix(0.707101 -0.707112 0.707101 0.707112 5.73047 12.522)" fill="white"/>
<rect width="12.3198" height="0.201963" transform="matrix(0.707101 -0.707112 0.707101 0.707112 6.30176 13.0926)" fill="white"/>
<rect width="12.3198" height="0.201963" transform="matrix(0.707101 -0.707112 0.707101 0.707112 6.94434 13.7355)" fill="white"/>
<rect width="12.3198" height="0.201963" transform="matrix(0.707101 -0.707112 0.707101 0.707112 7.51562 14.3071)" fill="white"/>
<rect width="12.3198" height="0.201963" transform="matrix(0.707101 -0.707112 0.707101 0.707112 8.1582 14.9495)" fill="white"/>
<rect width="12.3198" height="0.201963" transform="matrix(0.707101 -0.707112 0.707101 0.707112 8.72949 15.5211)" fill="white"/>
</g>
<mask id="mask2_3732_80523" style="mask-type:alpha" maskUnits="userSpaceOnUse" x="5" y="2" width="11" height="11">
<circle cx="4.99859" cy="4.99859" r="4.99859" transform="matrix(0.707101 -0.707112 0.707101 0.707112 3.23145 7.73889)" fill="#C4C4C4"/>
</mask>
<g mask="url(#mask2_3732_80523)">
<rect width="12.3198" height="0.201963" transform="matrix(0.707101 -0.707112 0.707101 0.707112 2.30273 8.95288)" fill="#FF7800"/>
<rect width="12.3198" height="0.201963" transform="matrix(0.707101 -0.707112 0.707101 0.707112 2.87402 9.52399)" fill="#FF7800"/>
<rect width="12.3198" height="0.201963" transform="matrix(0.707101 -0.707112 0.707101 0.707112 3.5166 10.1669)" fill="#FF7800"/>
<rect width="12.3198" height="0.201963" transform="matrix(0.707101 -0.707112 0.707101 0.707112 4.08789 10.738)" fill="#FF7800"/>
<rect width="12.3198" height="0.201963" transform="matrix(0.707101 -0.707112 0.707101 0.707112 4.73047 11.3809)" fill="#FF7800"/>
<rect width="12.3198" height="0.201963" transform="matrix(0.707101 -0.707112 0.707101 0.707112 5.30176 11.9515)" fill="#FF7800"/>
<rect width="12.3198" height="0.201963" transform="matrix(0.707101 -0.707112 0.707101 0.707112 5.94434 12.5943)" fill="#FF7800"/>
<rect width="12.3198" height="0.201963" transform="matrix(0.707101 -0.707112 0.707101 0.707112 6.51562 13.166)" fill="#FF7800"/>
<rect width="12.3198" height="0.201963" transform="matrix(0.707101 -0.707112 0.707101 0.707112 7.1582 13.8083)" fill="#FF7800"/>
<rect width="12.3198" height="0.201963" transform="matrix(0.707101 -0.707112 0.707101 0.707112 7.72949 14.3794)" fill="#FF7800"/>
<rect width="12.3198" height="0.201963" transform="matrix(0.707101 -0.707112 0.707101 0.707112 8.37207 15.0223)" fill="#FF7800"/>
<rect width="12.3198" height="0.201963" transform="matrix(0.707101 -0.707112 0.707101 0.707112 8.94336 15.5934)" fill="#FF7800"/>
</g>
<path d="M10.2646 2.36621C13.2789 2.36629 15.7227 4.80991 15.7227 7.82422C15.7226 10.8385 13.2789 13.2821 10.2646 13.2822C7.25038 13.2822 4.80667 10.8386 4.80664 7.82422C4.80664 4.80986 7.25036 2.36621 10.2646 2.36621Z" stroke="#FF7800"/>
<path d="M13.0991 3.29065C15.9201 2.21826 18.1001 1.99169 18.6115 2.87757C19.3784 4.2058 16.1042 7.53181 11.2985 10.3064C6.49285 13.081 1.97542 14.2536 1.20858 12.9253C0.690441 12.0279 2.01719 10.2183 4.41472 8.28309" stroke="#FF7800"/>
<ellipse cx="17.5707" cy="5.42972" rx="1.11079" ry="1.11081" fill="#FF7800"/>
</svg>
