<svg width="32" height="34" viewBox="0 0 32 34" fill="none" xmlns="http://www.w3.org/2000/svg">
<path d="M18.1504 0.125977C25.7992 0.125977 32 6.32605 32 13.9746C31.9999 21.6231 25.7991 27.8232 18.1504 27.8232C10.5018 27.8231 4.30182 21.623 4.30176 13.9746C4.30176 12.1995 4.63463 10.5021 5.24316 8.94238C4.12604 10.9478 3.49707 13.2183 3.49707 15.6221C3.49754 23.7714 10.7357 30.3777 19.665 30.3779C24.1507 30.3779 28.2095 28.71 31.1387 26.0176C28.1474 30.7389 22.8778 33.8739 16.875 33.874C7.55549 33.874 0.000234592 26.3192 0 17C9.68982e-05 7.68072 7.55541 0.125977 16.875 0.125977C17.0994 0.12598 17.3227 0.129988 17.5449 0.138672C17.7457 0.130032 17.9475 0.125981 18.1504 0.125977Z" fill="url(#paint0_linear_3781_14900)"/>
<defs>
<linearGradient id="paint0_linear_3781_14900" x1="16" y1="0.125977" x2="16" y2="33.874" gradientUnits="userSpaceOnUse">
<stop stop-color="#FFD05B"/>
<stop offset="1" stop-color="#F73833"/>
</linearGradient>
</defs>
</svg>
