<svg width="20" height="20" viewBox="0 0 20 20" fill="none" xmlns="http://www.w3.org/2000/svg">
<path fill-rule="evenodd" clip-rule="evenodd" d="M10.1964 19.4237C14.3532 19.4237 18.0395 16.6786 19.216 12.6786C15.9444 13.2238 12.417 11.8686 10.1964 9.46289C7.97573 11.8686 4.44838 13.2238 1.17676 12.6786C2.43166 16.757 6.0395 19.4237 10.1964 19.4237Z" fill="#057475"/>
<path fill-rule="evenodd" clip-rule="evenodd" d="M19.6077 10.7177C19.6077 6.32079 17.2694 2.28831 12.8626 0.992188C13.2673 3.4205 12.5695 6.06887 11.2939 8.12944C13.4026 10.3385 16.6122 11.4665 19.6077 10.7177Z" fill="#69C5C5"/>
<path fill-rule="evenodd" clip-rule="evenodd" d="M9.01947 8.05101C7.71226 6.03991 7.05151 3.38822 7.45085 0.992188C3.0797 2.30353 0.78418 6.35802 0.78418 10.7177C3.76588 11.4631 7.00935 10.3627 9.01947 8.05101Z" fill="#69C5C5"/>
<path fill-rule="evenodd" clip-rule="evenodd" d="M10.1961 6.40402C10.8235 5.22755 11.1372 3.89422 11.1372 2.48245C11.1372 1.855 11.0588 1.22755 10.9019 0.600098C10.6666 0.600098 10.4314 0.600098 10.1961 0.600098C9.96076 0.600098 9.72547 0.600098 9.49018 0.600098C9.33331 1.22755 9.25488 1.855 9.25488 2.48245C9.25488 3.89422 9.64704 5.22755 10.1961 6.40402Z" fill="#057475"/>
</svg>
