<svg width="22" height="20" viewBox="0 0 22 20" fill="none" xmlns="http://www.w3.org/2000/svg">
<path d="M6.85059 5.0773C8.152 5.07738 9.26527 5.54027 10.1729 6.465C11.0975 7.37264 11.5596 8.48578 11.5596 9.78726C11.5596 11.0717 11.1147 12.1853 10.207 13.0929C9.29943 14.0005 8.20324 14.4801 6.91895 14.4972H3.4248V17.0656C3.4248 18.0074 2.65465 18.7783 1.71289 18.7785C0.77098 18.7785 0 18.0075 0 17.0656V6.79019C0 5.84826 0.77098 5.0773 1.71289 5.0773H6.85059ZM3.4248 8.50308V11.0714H6.90137C7.56926 11.0543 8.13475 10.4723 8.13477 9.78726C8.13477 9.0852 7.55259 8.50326 6.85059 8.50308H3.4248Z" fill="#FF7800"/>
<path d="M12.4992 15.2227C13.9532 13.7315 14.6666 11.9025 14.6666 9.79224C14.6666 7.65381 13.9258 5.82489 12.4443 4.33362" stroke="#FF7800" stroke-width="3.12"/>
<path d="M16.5321 18.5552C18.8586 16.1814 19.9999 13.27 19.9999 9.9108C19.9999 6.50677 18.8147 3.59542 16.4443 1.22156" stroke="#FF7800" stroke-width="3.12"/>
</svg>
