<svg width="20" height="22" viewBox="0 0 20 22" fill="none" xmlns="http://www.w3.org/2000/svg">
<rect width="3.32875" height="13.5107" rx="1.66437" transform="matrix(0.866029 0.499994 -0.500006 0.866022 6.82129 2.23749)" fill="#FF546D"/>
<rect width="3.46979" height="14.3577" rx="1.7349" transform="matrix(0.866029 0.499994 -0.500006 0.866022 16.6377 6.91974)" fill="#00D4E6"/>
<path d="M4.12544 15.5184C2.4754 14.8472 -0.0233906 14.003 0.867285 12.4603C1.76212 10.9104 4.19619 11.8681 5.85913 12.5295C6.57525 12.8143 7.42636 13.214 8.39779 13.7749C9.36921 14.3357 10.1409 14.8729 10.7457 15.3507C12.15 16.4601 14.1964 18.0892 13.3015 19.6391C12.4109 21.1818 10.4304 19.4399 9.02403 18.3465C8.42544 17.8812 7.6529 17.3514 6.66288 16.7798C5.67287 16.2082 4.82776 15.8041 4.12544 15.5184Z" fill="#6D86F5"/>
<path d="M10.9756 3.65346C9.56932 2.56013 7.58882 0.81824 6.69814 2.36091C5.80331 3.91078 7.84972 5.53988 9.254 6.6493C9.85873 7.12706 10.6305 7.66427 11.6019 8.22511C12.5733 8.78595 13.4244 9.18568 14.1405 9.4705C15.8035 10.1319 18.2376 11.0896 19.1324 9.53971C20.0231 7.99704 17.5243 7.15284 15.8742 6.48162C15.1719 6.19592 14.3268 5.79179 13.3368 5.22022C12.3468 4.64864 11.5742 4.11883 10.9756 3.65346Z" fill="#FFAA50"/>
<rect width="3.32875" height="7.63647" rx="1.66437" transform="matrix(0.866029 0.499994 -0.500006 0.866022 7.4082 1.2197)" fill="#FF546D"/>
<rect width="3.46979" height="8.44068" rx="1.7349" transform="matrix(0.866029 0.499994 -0.500006 0.866022 13.6797 12.0441)" fill="#00D4E6"/>
</svg>
