<svg width="24" height="25" viewBox="0 0 24 25" fill="none" xmlns="http://www.w3.org/2000/svg">
<g clip-path="url(#clip0_3831_103956)">
<path d="M2 2.00195L6.82143 2.50195L10.6786 5.42878L11 22.502L9 23.502L6.5 21.502L2.5 18.502L2 2.00195Z" fill="#FF6C03"/>
<path d="M3.03928 0.589064C2.07366 0.870314 1.32366 1.63906 1.07522 2.59531C1.00959 2.84844 1.00022 3.73906 1.00022 10.6344C1.00022 19.1703 0.981469 18.6078 1.29084 19.2359C1.60022 19.8641 1.74084 19.9766 4.94709 22.1141C6.56897 23.1969 8.01272 24.1438 8.16272 24.2188C8.55647 24.4156 8.92678 24.5 9.42834 24.5C10.244 24.5 10.8768 24.2422 11.4346 23.6844C12.0252 23.0938 12.2362 22.5359 12.283 21.4297L12.3112 20.75H13.9049C15.1987 20.75 15.5455 20.7359 15.7799 20.675C16.7596 20.4219 17.5283 19.6531 17.8143 18.6359C17.8893 18.3688 17.8987 18.1156 17.8987 16.2266V14.1172L17.7674 13.8969C17.4158 13.2969 16.4924 13.2688 16.1315 13.8453C16.0237 14.0234 16.0237 14.0234 16.0002 16.0859C15.9768 18.0828 15.9721 18.1531 15.8783 18.3359C15.7612 18.5516 15.6674 18.6406 15.4377 18.7625C15.2877 18.8422 15.133 18.8516 13.7877 18.8656L12.3018 18.8797L12.2877 12.7484C12.269 5.94688 12.2924 6.43906 11.9596 5.76406C11.669 5.17344 11.4205 4.9625 9.39553 3.6125L7.53928 2.375L11.4065 2.38438C15.2596 2.39844 15.2737 2.39844 15.4612 2.49688C15.6768 2.61406 15.7658 2.70781 15.8877 2.9375C15.9721 3.0875 15.9768 3.26563 16.0002 5.16406C16.0237 7.22656 16.0237 7.22656 16.1315 7.40469C16.3002 7.67188 16.5768 7.8125 16.9377 7.8125C17.3221 7.8125 17.5846 7.66719 17.7674 7.35313L17.8987 7.13281V5.02344C17.8987 2.67031 17.894 2.64688 17.5612 1.98125C17.3408 1.54063 16.8018 1.00625 16.3705 0.795315C15.7237 0.481251 16.1268 0.500002 9.40959 0.504688C3.75178 0.504688 3.30178 0.514065 3.03928 0.589064ZM4.30491 2.55781C4.43616 2.6375 5.79553 3.5375 7.32834 4.56406C9.87366 6.26563 10.1268 6.44844 10.2346 6.64063L10.3518 6.85156V14.375V21.8984L10.2533 22.0859C9.99084 22.5781 9.43303 22.7281 8.94553 22.4422C8.81897 22.3625 7.45491 21.4625 5.92209 20.4359C3.52209 18.8281 3.11897 18.5422 3.02991 18.3828L2.92209 18.1953V10.6344C2.92209 3.30781 2.92678 3.06875 3.01116 2.9C3.25491 2.42656 3.82209 2.27656 4.30491 2.55781Z" fill="#303335"/>
<path d="M20.1859 7.93438C19.8953 8.10313 19.75 8.37969 19.75 8.74531C19.75 9.07344 19.8156 9.22813 20.0641 9.50469L20.2281 9.6875H17.5H14.7672L14.5656 9.80469C14.2703 9.97813 14.125 10.25 14.125 10.625C14.125 11 14.2703 11.2719 14.5656 11.4453L14.7672 11.5625H17.5H20.2281L20.0641 11.7453C19.8156 12.0219 19.75 12.1766 19.75 12.5047C19.75 13.0766 20.1156 13.4375 20.6922 13.4375C20.95 13.4375 21.0297 13.4141 21.2078 13.3016C21.475 13.1281 23.3266 11.2578 23.425 11.0609C23.4719 10.9719 23.5 10.7938 23.5 10.6109C23.5 10.3625 23.4766 10.2828 23.3641 10.1047C23.1906 9.8375 21.3203 7.98594 21.1234 7.8875C20.8844 7.76563 20.425 7.78906 20.1859 7.93438Z" fill="#303335"/>
</g>
<defs>
<clipPath id="clip0_3831_103956">
<rect width="24" height="24" fill="white" transform="translate(0 0.50293)"/>
</clipPath>
</defs>
</svg>
