<svg width="24" height="19" viewBox="0 0 24 19" fill="none" xmlns="http://www.w3.org/2000/svg">
<path d="M2.37695 9.22645L2.37695 6.41495C2.37695 3.70571 4.57329 1.50943 7.2826 1.50943C8.67381 1.50943 9.92975 2.08853 10.8225 3.01882" stroke="#8759F2" stroke-width="3"/>
<path d="M22.0003 7.54407V7.54407C22.0003 4.21123 19.2985 1.50943 15.9657 1.50943L15.0192 1.50943C11.1636 1.50943 8.03809 4.63498 8.03809 8.49054L8.03809 15.8486" stroke="#8759F2" stroke-width="3"/>
<path d="M2.37744 5.66067L2.37744 7.52124C2.37744 11.2375 4.47711 14.6348 7.80107 16.2968V16.2968C10.5632 17.6778 13.8143 17.6778 16.5764 16.2968V16.2968C19.9003 14.6348 22 11.2375 22 7.52125L22 7.17011" stroke="#8759F2" stroke-width="3"/>
<path d="M8.79297 11.6987H21.2458" stroke="#8759F2" stroke-width="3"/>
<path d="M2 8.67828H8.41507" stroke="#8759F2" stroke-width="3"/>
</svg>
