<svg width="20" height="22" viewBox="0 0 20 22" fill="none" xmlns="http://www.w3.org/2000/svg">
<path d="M11.3447 0.453613C16.1249 0.453739 19.9998 4.32876 20 9.10889C20 13.8892 16.125 17.765 11.3447 17.7651C6.56436 17.7651 2.68848 13.8893 2.68848 9.10889C2.68852 7.99865 2.89938 6.93778 3.28027 5.9624C2.58123 7.21636 2.18558 8.63483 2.18555 10.1382C2.18555 15.2317 6.70923 19.3607 12.29 19.3608C15.0919 19.3608 17.6266 18.3192 19.457 16.6382C17.5872 19.5871 14.297 21.5462 10.5469 21.5464C4.7224 21.5464 0.000247906 16.8249 0 11.0005C0 5.17586 4.72225 0.453613 10.5469 0.453613C10.6951 0.45362 10.8426 0.456311 10.9893 0.462402C11.1071 0.457644 11.2257 0.453613 11.3447 0.453613Z" fill="url(#paint0_linear_3732_80620)"/>
<defs>
<linearGradient id="paint0_linear_3732_80620" x1="10" y1="0.453613" x2="10" y2="21.5464" gradientUnits="userSpaceOnUse">
<stop stop-color="#FFD05B"/>
<stop offset="1" stop-color="#F73833"/>
</linearGradient>
</defs>
</svg>
