<svg width="128" height="128" viewBox="0 0 128 128" fill="none" xmlns="http://www.w3.org/2000/svg">
<rect width="128" height="128" rx="20" fill="#3E007C"/>
<path d="M60.9719 16.833C48.3311 19.1144 35.739 23.4829 26.0154 28.8708C18.7226 32.9481 16 37.8506 16 47.2672C16 51.0533 16.1459 51.7814 16.9724 52.558C18.6254 54.0627 21.2021 53.5773 29.4186 50.2281C33.697 48.4807 38.4616 46.6847 40.066 46.1508L42.9831 45.2771L41.1356 45.1315C40.1633 45.0344 37.0031 45.3256 34.2318 45.714C28.1059 46.6362 26.9877 46.6847 27.4739 45.9566C28.6894 43.918 50.8106 36.5885 58.8327 35.5207C61.7984 35.1324 62.0415 34.4528 56.3531 42.3647C41.6218 62.7998 28.4463 84.9823 24.9944 95.2727C23.8275 98.6705 23.7303 99.6898 23.8762 104.398C24.022 109.543 24.0706 109.689 25.4319 110.902C26.8905 112.116 26.8905 112.116 34.4263 111.873C43.3234 111.63 49.9355 110.417 58.5409 107.602C83.6766 99.2529 103.707 81.2448 109.687 61.6834C110.806 57.8974 110.951 56.5868 111 50.131C111 41.8308 110.417 38.8699 107.499 32.8996C104.048 25.7643 96.609 20.0366 87.4688 17.3184C82.2666 15.8137 68.0215 15.5224 60.9719 16.833ZM85.3782 35.1324C97.5328 37.6079 103.561 44.6946 102.929 55.6645C102.492 62.994 99.4289 68.9643 92.3306 76.0996C83.5307 84.9823 71.0844 91.8264 56.8879 95.6125C51.783 96.9716 50.5189 97.1172 43.6151 97.1657C36.2738 97.2143 35.9335 97.1657 34.8639 96.0979C33.7943 95.03 33.7943 94.9815 34.5722 92.7001C35.3987 90.4673 43.9069 74.5464 47.5046 68.576C48.477 66.9742 52.1233 61.198 55.6238 55.7131C65.1044 41.0056 65.2503 40.7144 65.0072 37.2681L64.8127 34.3557H73.2236C79.0578 34.3557 82.8501 34.5984 85.3782 35.1324Z" fill="white"/>
</svg>
