<svg width="794" height="244" viewBox="0 0 794 244" fill="none" xmlns="http://www.w3.org/2000/svg">
<path d="M660.515 14.3749C640.414 34.8409 614.466 68.9508 577.189 124.623C560.5 149.475 553.799 161.779 550.754 173.473C548.805 180.783 548.439 181.392 541.008 186.387C533.333 191.503 529.07 192.599 526.633 190.163C525.659 189.188 526.268 186.63 529.313 180.661C535.892 167.504 538.937 155.809 539.059 143.627C539.059 133.272 538.937 132.663 535.648 129.861C533.821 128.278 531.384 126.938 530.531 126.938C529.07 126.938 529.07 126.207 530.775 122.674C533.333 117.436 531.75 113.294 526.146 110.37C523.1 108.786 519.811 108.543 511.162 108.908C501.782 109.274 498.736 110.005 491.671 113.294C487.041 115.487 479.854 119.628 475.712 122.552C466.21 129.374 450.129 146.429 444.891 155.322C439.896 163.484 435.024 175.301 434.902 178.834C434.902 180.417 432.222 183.463 427.349 187.483C412.852 199.056 407.614 202.589 398.477 207.096C387.148 212.7 374.6 213.918 368.387 210.02C364.002 207.218 360.834 201.249 359.86 193.452L359.007 187.848L368.022 183.95C410.903 165.311 434.171 144.724 435.876 123.892C436.485 116.339 434.049 110.736 428.811 108.055C424.182 105.619 410.416 105.741 401.888 108.177C374.357 116.339 339.638 148.987 331.476 174.57C330.379 177.859 326.359 182.366 316.004 191.625C299.193 206.853 294.686 209.776 287.864 209.776C277.021 209.776 271.052 199.787 271.783 182.732L272.27 172.499L282.625 161.048C313.69 126.694 337.079 89.1732 345.485 60.5452C349.14 47.6321 350.236 27.6534 347.312 24.2424C345.12 21.4405 339.638 21.6842 333.425 24.7297C326.359 28.3843 305.284 49.8249 296.391 62.4943C271.905 97.2134 251.804 140.094 245.592 171.037C240.11 197.96 246.079 228.902 258.626 237.917C268.738 245.226 284.696 241.572 299.802 228.293C306.868 222.202 318.684 209.654 324.775 201.98L328.552 197.229L329.283 205.147C330.745 220.984 338.176 233.775 349.14 239.013C353.891 241.328 356.205 241.693 366.438 241.206C376.549 240.841 379.473 240.232 386.539 236.942C397.746 231.582 407.614 223.907 422.476 208.802C429.298 201.858 434.902 196.985 434.902 197.96C434.902 203.076 440.384 216.355 445.013 222.811C452.079 232.313 459.997 236.699 470.352 236.699C481.194 236.821 490.818 231.704 503.365 219.4C512.38 210.385 513.355 209.776 518.228 209.776C525.902 209.776 534.795 206.731 540.764 201.858C543.688 199.543 546.612 197.594 547.099 197.594C547.708 197.594 548.196 200.883 548.196 204.903C548.196 221.715 553.312 231.704 561.84 231.704C566.712 231.704 568.174 230.364 585.595 208.558C602.284 187.727 617.999 169.941 625.065 163.85C631.765 158.124 637.734 153.738 638.831 153.738C639.196 153.738 636.516 158.489 632.74 164.215C616.781 188.945 609.106 207.462 609.106 220.984C609.106 233.044 613.126 238.039 622.994 238.039C633.47 238.039 645.531 230.12 668.433 208.071C675.864 201.005 682.443 195.158 683.174 195.158C685.732 195.158 704.37 173.839 710.218 164.215L716.431 154.226L731.293 151.546C739.455 150.084 746.521 148.866 747.008 148.866C747.495 148.866 744.45 153.617 740.064 159.464C730.806 171.89 722.278 187.848 719.354 198.081C714.847 213.431 719.354 231.582 728.613 235.359C733.729 237.551 741.039 237.064 746.642 234.14C753.708 230.608 767.718 218.791 781.24 205.269L793.178 193.209L792.813 186.265L792.447 179.321L782.702 186.63C764.672 200.152 752.612 204.538 747.495 199.3C741.16 192.965 750.175 173.473 769.545 151.546C781.118 138.511 782.58 135.587 781.605 127.79C781.118 124.501 779.656 119.628 778.316 117.07L776.001 112.319L765.89 112.441C760.408 112.441 749.079 113.416 740.673 114.634C732.267 115.852 725.324 116.705 725.08 116.583C724.836 116.339 725.567 114.512 726.542 112.441C728.978 107.812 729.1 102.695 726.664 101.843C716.796 98.0661 691.701 125.476 686.95 145.211C685.488 151.546 687.681 158.368 692.066 160.804C694.016 161.9 695.599 163.362 695.599 164.093C695.599 165.311 686.097 178.468 684.757 179.077C684.392 179.199 679.153 182.854 673.062 187.239C659.784 196.741 651.135 201.249 646.14 201.249C641.389 201.249 639.562 199.3 639.562 194.061C639.562 185.412 648.942 170.062 669.164 145.82C673.671 140.582 677.326 135.1 677.326 133.882C677.326 130.714 673.184 123.161 669.53 119.75C666.971 117.314 665.631 116.948 660.271 117.436C648.698 118.532 630.547 133.029 595.462 168.844L573.778 190.894V182.001V173.108L583.646 161.9C628.598 111.101 694.381 19.4914 694.381 7.79654C694.381 3.65462 689.874 1.09637 682.077 0.487259L674.768 -1.52588e-05L660.515 14.3749ZM328.308 59.9361C332.206 66.2708 304.309 117.07 286.28 136.683C280.554 143.018 280.189 143.14 280.92 139.729C288.107 106.594 321.852 49.5812 328.308 59.9361ZM409.685 128.643C410.781 131.323 404.934 141.922 398.843 148.744C395.797 152.155 389.95 157.393 385.808 160.56C378.62 165.921 365.586 173.23 363.149 173.23C361.444 173.23 363.393 167.261 367.535 159.586C376.428 142.896 406.639 120.725 409.685 128.643ZM504.949 149.231C501.538 156.053 498.127 164.581 497.274 168.113C495.447 176.032 495.325 188.214 497.031 193.939C498.127 197.838 498.005 198.447 494.96 200.883C483.752 210.02 470.839 213.309 462.921 209.167C457.926 206.609 457.317 202.589 459.753 190.285C462.677 176.032 465.357 171.037 475.103 161.779C482.047 155.2 508.116 136.683 510.431 136.683C510.796 136.683 508.36 142.287 504.949 149.231Z" fill="#3E007C"/>
<path d="M112.685 4.99466C81.0111 10.7203 49.4594 21.6842 25.0952 35.2063C6.82199 45.4393 0 57.7433 0 81.3766C0 90.8787 0.365464 92.706 2.43643 94.6551C6.57835 98.4316 13.0349 97.2134 33.6227 88.8077C44.3429 84.4221 56.2814 79.9147 60.3015 78.5747L67.6108 76.3819L62.9816 76.0165C60.5452 75.7728 52.6268 76.5038 45.683 77.4783C30.3335 79.7929 27.5316 79.9147 28.7498 78.0874C31.7954 72.9709 87.224 54.5759 107.325 51.8959C114.756 50.9213 115.365 49.2158 101.112 69.0726C64.1998 120.359 31.1862 176.032 22.5369 201.858C19.6132 210.385 19.3696 212.944 19.735 224.76C20.1005 237.673 20.2223 238.039 23.6333 241.084C27.288 244.13 27.288 244.13 46.1703 243.521C68.4636 242.912 85.0312 239.866 106.594 232.8C169.575 211.847 219.766 166.651 234.75 117.558C237.551 108.055 237.917 104.766 238.039 88.5641C238.039 67.7326 236.577 60.3015 229.268 45.3175C220.618 27.4098 201.98 13.0349 179.077 6.21288C166.042 2.43642 130.349 1.70549 112.685 4.99466ZM173.839 50.9213C204.294 57.1342 219.4 74.9201 217.816 102.452C216.72 120.847 209.045 135.831 191.259 153.738C169.21 176.032 138.023 193.209 102.452 202.711C89.6605 206.122 86.4931 206.487 69.1945 206.609C50.7995 206.731 49.9467 206.609 47.2667 203.929C44.5866 201.249 44.5866 201.127 46.5357 195.401C48.6067 189.798 69.9254 149.84 78.9402 134.856C81.3766 130.836 90.5132 116.339 99.2843 102.574C123.039 65.6617 123.405 64.9307 122.796 56.2814L122.309 48.9721H143.384C158.002 48.9721 167.504 49.5813 173.839 50.9213Z" fill="#3E007C"/>
</svg>
