<svg width="24" height="25" viewBox="0 0 24 25" fill="none" xmlns="http://www.w3.org/2000/svg">
<g clip-path="url(#clip0_3831_103926)">
<path d="M7.80469 12.8779L11.9766 11.4014L15.7266 12.8779L17.2031 14.9639L18.1406 17.5186L16.5234 19.8154L7.03125 19.4873L6.07031 17.167L7.80469 12.8779Z" fill="#10B3A1"/>
<path d="M11.3629 4.90918C10.2004 5.12011 9.1832 5.95449 8.7332 7.06543C8.33008 8.07324 8.42852 9.23105 9.00508 10.1873C9.21133 10.5248 9.60977 10.9654 9.87695 11.1482C9.99414 11.2279 10.0691 11.3076 10.0457 11.3264C10.027 11.3451 9.90508 11.4014 9.77383 11.4482C9.39414 11.5842 8.7332 11.9404 8.3582 12.2076C8.16601 12.3436 7.99726 12.4561 7.97852 12.4561C7.95976 12.4561 7.8707 12.3951 7.78164 12.3248C7.55195 12.1373 7.02227 11.8232 6.72227 11.7014L6.46445 11.5936L6.7457 11.3123C7.37852 10.6701 7.6457 9.88261 7.53789 8.9873C7.41133 7.9373 6.7082 7.08418 5.67227 6.72793C5.24102 6.57793 4.43008 6.57793 3.96133 6.72324C3.16445 6.97636 2.50352 7.61855 2.19414 8.45293C2.10508 8.6873 2.08633 8.82324 2.08633 9.3623C2.09102 9.94824 2.10039 10.0186 2.22227 10.3232C2.40039 10.7592 2.62539 11.092 2.92539 11.3686L3.17383 11.5936L2.91133 11.6967C2.43789 11.8795 1.87539 12.2639 1.42539 12.7092C0.511328 13.6139 0.0613281 14.6217 0.0144531 15.8639L-0.0136719 16.4873H2.88789H5.78945L5.77539 17.1857C5.76602 17.5936 5.78008 17.992 5.81289 18.142C6.00508 19.0842 6.86289 19.9232 7.80039 20.092C7.98789 20.1248 9.4082 20.1436 12.0191 20.1436C16.3457 20.1436 16.266 20.1482 16.8332 19.8576C17.2316 19.6561 17.7566 19.1264 17.9441 18.7326C18.1551 18.2873 18.1973 18.0107 18.1785 17.1998L18.1645 16.4873H21.0848H24.0004V16.0279C24.0004 15.1889 23.752 14.3311 23.2879 13.5811C22.8191 12.8123 21.7926 11.9404 21.0426 11.6732L20.8316 11.5982L21.1457 11.2842C21.6988 10.7311 21.966 10.0139 21.9238 9.22168C21.8723 8.26543 21.4504 7.5248 20.6676 7.01855C20.2551 6.75136 19.8848 6.63886 19.3363 6.61074C18.4785 6.56855 17.8176 6.82168 17.227 7.4123C16.6879 7.95605 16.4348 8.58418 16.4395 9.3623C16.4441 10.117 16.6785 10.7029 17.2082 11.2607L17.5176 11.5842L17.0676 11.7998C16.8191 11.9217 16.477 12.1232 16.3082 12.2545L15.9941 12.4936L15.6051 12.2123C15.202 11.9217 14.5973 11.5982 14.1801 11.4482C14.0535 11.4014 13.927 11.3451 13.9082 11.3264C13.8848 11.3076 13.9598 11.2279 14.077 11.1482C14.1941 11.0686 14.4004 10.8811 14.5363 10.7264C15.1926 10.0045 15.5113 9.0998 15.4551 8.14355C15.366 6.66699 14.4004 5.44824 12.9613 5.00293C12.5863 4.89043 11.7566 4.83886 11.3629 4.90918ZM12.4926 5.72949C13.0082 5.8373 13.4676 6.09043 13.852 6.4748C14.3957 7.02324 14.6395 7.5998 14.6395 8.35449C14.6395 9.10918 14.3957 9.68105 13.8426 10.2342C12.7457 11.3357 11.077 11.3029 10.0223 10.1639C9.65664 9.77011 9.49726 9.47949 9.37539 9.00605C9.2582 8.54668 9.2582 8.1623 9.37539 7.70293C9.64727 6.64355 10.4301 5.93105 11.602 5.6873C11.8035 5.64511 12.1785 5.66386 12.4926 5.72949ZM5.30195 7.46855C5.68633 7.58574 5.8832 7.69824 6.15977 7.9748C6.92852 8.74824 6.9332 9.93418 6.16914 10.7029C4.94102 11.9311 2.85977 11.0732 2.85977 9.33886C2.85977 8.07324 4.11133 7.11699 5.30195 7.46855ZM19.7441 7.4873C20.7238 7.7873 21.3191 8.82324 21.0754 9.78418C20.6863 11.2936 18.877 11.7857 17.7848 10.6842C17.4238 10.3139 17.2504 9.88261 17.2504 9.33418C17.2504 8.04511 18.5113 7.10761 19.7441 7.4873ZM12.6332 11.8982C13.8004 12.0436 14.8457 12.5498 15.7363 13.4076C16.8426 14.4764 17.4379 15.9436 17.3816 17.4717C17.3629 17.9779 17.3488 18.0482 17.2129 18.3295C17.0254 18.7092 16.6504 19.0654 16.2754 19.2154L16.0082 19.3232L12.1504 19.3373C9.65195 19.3467 8.19883 19.3326 8.03008 19.2998C7.43477 19.192 6.98945 18.8545 6.73164 18.3154C6.58633 18.0107 6.58633 18.0061 6.59102 17.2373C6.59102 16.3607 6.66602 15.9529 6.96602 15.2311C7.89883 12.967 10.2191 11.6029 12.6332 11.8982ZM5.70977 12.2217C6.17852 12.3342 6.69414 12.5639 7.07852 12.8357C7.2332 12.9436 7.35977 13.042 7.35977 13.0514C7.35977 13.0654 7.26602 13.1826 7.15352 13.3139C6.7082 13.8436 6.26289 14.6592 6.04258 15.3482L5.93477 15.6904H3.36602H0.792578L0.820703 15.5123C1.14883 13.5529 2.80352 12.1373 4.78164 12.1326C5.16602 12.1279 5.4332 12.1561 5.70977 12.2217ZM20.0066 12.2029C20.7895 12.3623 21.502 12.7654 22.0832 13.3795C22.641 13.9654 23.016 14.692 23.1473 15.442L23.1895 15.6904H20.5973H18.0051L17.9301 15.4186C17.752 14.8045 17.302 13.9654 16.8238 13.3607L16.5941 13.0748L16.7395 12.9529C17.0957 12.6482 17.8035 12.3201 18.3379 12.2029C18.7504 12.1139 19.5707 12.1139 20.0066 12.2029Z" fill="#303335"/>
</g>
<defs>
<clipPath id="clip0_3831_103926">
<rect width="24" height="24" fill="white" transform="translate(0 0.50293)"/>
</clipPath>
</defs>
</svg>
