<svg width="23" height="25" viewBox="0 0 23 25" fill="none" xmlns="http://www.w3.org/2000/svg">
<rect x="3" y="10.5029" width="16" height="13" fill="#3E007C"/>
<path d="M2.14836 0.638866L2.01242 0.774803V12.1232V23.4717H1.23898C0.367109 23.4717 0.188984 23.5139 0.0717965 23.7482C-0.0594535 23.9967 -0.00789101 24.2498 0.203047 24.4186C0.296797 24.4982 0.934297 24.5029 11.0124 24.5029C21.0905 24.5029 21.728 24.4982 21.8218 24.4186C22.0327 24.2498 22.0843 23.9967 21.953 23.7482C21.8359 23.5139 21.6577 23.4717 20.7859 23.4717H20.0124V12.1232V0.774803L19.8765 0.638866L19.7405 0.50293H11.0124H2.2843L2.14836 0.638866ZM18.9812 12.5029V23.4717H16.4968H14.0124V21.1232V18.7748L13.8765 18.6389L13.7405 18.5029H11.0124H8.2843L8.14836 18.6389L8.01242 18.7748V21.1232V23.4717H5.52805H3.04367V12.5029V1.53418H11.0124H18.9812V12.5029ZM12.9812 21.5029V23.4717H11.0124H9.04367V21.5029V19.5342H11.0124H12.9812V21.5029Z" fill="#303335"/>
<path d="M4.15922 3.63869L4.00454 3.77463L3.99047 5.41994C3.97641 7.26213 3.9811 7.31838 4.29047 7.46369C4.4311 7.52932 4.6561 7.53869 6.09516 7.52463L7.74047 7.51057L7.87641 7.35588L8.01235 7.20588V5.49026V3.77463L7.87641 3.63869L7.74047 3.50276H6.02485H4.30922L4.15922 3.63869ZM6.9811 5.51838V6.50276H5.99672H5.01235V5.51838V4.53401H5.99672H6.9811V5.51838Z" fill="#303335"/>
<path d="M9.20332 3.58691C9.00176 3.74629 8.99707 3.80723 8.99707 5.49473C8.99707 7.29941 9.00176 7.3416 9.30176 7.46816C9.53613 7.5666 12.4893 7.5666 12.7236 7.46816C13.0236 7.3416 13.0283 7.29941 13.0283 5.49473C13.0283 3.80723 13.0236 3.74629 12.8221 3.58691C12.733 3.51191 12.5643 3.50254 11.0127 3.50254C9.46113 3.50254 9.29238 3.51191 9.20332 3.58691ZM11.9971 5.51816V6.50254H11.0127H10.0283V5.51816V4.53379H11.0127H11.9971V5.51816Z" fill="#303335"/>
<path d="M14.1486 3.63869L14.0127 3.77463V5.49026V7.20588L14.1486 7.35588L14.2846 7.51057L15.9299 7.52463C17.3689 7.53869 17.5939 7.52932 17.7346 7.46369C18.0439 7.31838 18.0486 7.26213 18.0346 5.41994L18.0205 3.77463L17.8658 3.63869L17.7158 3.50276H16.0002H14.2846L14.1486 3.63869ZM17.0127 5.51838V6.50276H16.0283H15.0439V5.51838V4.53401H16.0283H17.0127V5.51838Z" fill="#303335"/>
<path d="M4.27616 8.54668C3.98553 8.69199 3.97616 8.75762 3.99022 10.5857L4.00428 12.2311L4.15897 12.367L4.30897 12.5029H6.0246H7.74022L7.87616 12.367L8.0121 12.2311V10.5154V8.7998L7.87616 8.6498L7.74022 8.49512L6.08085 8.48105C4.64647 8.47168 4.40741 8.48105 4.27616 8.54668ZM6.98085 10.4873V11.4717H5.99647H5.0121V10.4873V9.50293H5.99647H6.98085V10.4873Z" fill="#303335"/>
<path d="M9.29238 8.54199C9.00645 8.66387 8.99707 8.71543 8.99707 10.5107C8.99707 12.1982 9.00176 12.2592 9.20332 12.4186C9.29238 12.4936 9.46113 12.5029 11.0127 12.5029C12.5643 12.5029 12.733 12.4936 12.8221 12.4186C13.0236 12.2592 13.0283 12.1982 13.0283 10.5107C13.0283 8.70605 13.0236 8.66387 12.7236 8.5373C12.4939 8.44355 9.5127 8.44355 9.29238 8.54199ZM11.9971 10.4873V11.4717H11.0127H10.0283V10.4873V9.50293H11.0127H11.9971V10.4873Z" fill="#303335"/>
<path d="M14.3549 8.50449C14.2986 8.51387 14.1955 8.58887 14.1299 8.66387L14.0127 8.80918V10.5201V12.2311L14.1486 12.367L14.2846 12.5029H16.0002H17.7158L17.8658 12.367L18.0205 12.2311L18.0346 10.5857C18.0486 9.14668 18.0393 8.92168 17.9736 8.78105C17.8283 8.48105 17.7721 8.47168 16.0189 8.47637C15.1611 8.48105 14.4111 8.49512 14.3549 8.50449ZM17.0127 10.4873V11.4717H16.0283H15.0439V10.4873V9.50293H16.0283H17.0127V10.4873Z" fill="#303335"/>
<path d="M4.23384 13.5764C4.15415 13.6279 4.06509 13.7357 4.03227 13.8201C3.9479 14.0592 3.96196 17.0076 4.04634 17.2139C4.1729 17.5139 4.21509 17.5186 6.01977 17.5186C7.70727 17.5186 7.76821 17.5139 7.92759 17.3123C8.00259 17.2232 8.01196 17.0545 8.01196 15.5029C8.01196 13.9514 8.00259 13.7826 7.92759 13.6936C7.76821 13.492 7.70727 13.4873 6.0104 13.4873C4.49165 13.4873 4.36977 13.492 4.23384 13.5764ZM6.98071 15.5029V16.4873H5.99634H5.01196V15.5029V14.5186H5.99634H6.98071V15.5029Z" fill="#303335"/>
<path d="M9.15645 13.6467L8.99707 13.8061V15.5029V17.1998L9.15645 17.3592L9.31582 17.5186H11.0127H12.7096L12.8689 17.3592L13.0283 17.1998V15.5029V13.8061L12.8689 13.6467L12.7096 13.4873H11.0127H9.31582L9.15645 13.6467ZM11.9971 15.5029V16.4873H11.0127H10.0283V15.5029V14.5186H11.0127H11.9971V15.5029Z" fill="#303335"/>
<path d="M14.2705 13.5436C14.0127 13.6842 14.0127 13.6514 14.0127 15.5029C14.0127 17.0545 14.0221 17.2232 14.0971 17.3123C14.2564 17.5139 14.3174 17.5186 16.0049 17.5186C17.8096 17.5186 17.8518 17.5139 17.9783 17.2139C18.0768 16.9795 18.0768 14.0264 17.9783 13.792C17.8518 13.492 17.8143 13.4873 15.9955 13.4873C14.8986 13.492 14.3314 13.5061 14.2705 13.5436ZM17.0127 15.5029V16.4873H16.0283H15.0439V15.5029V14.5186H16.0283H17.0127V15.5029Z" fill="#303335"/>
</svg>
