<svg width="86" height="22" viewBox="0 0 86 22" fill="none" xmlns="http://www.w3.org/2000/svg">
<g clip-path="url(#clip0_4187_37329)">
<path d="M13.9998 11.1961C13.9998 7.30584 10.8655 4.15234 6.9998 4.15234C3.1323 4.15322 -0.00195312 7.30584 -0.00195312 11.197C-0.00195312 14.7118 2.5583 17.6256 5.9043 18.1541V13.2322H4.12805V11.197H5.90605V9.64384C5.90605 7.87897 6.95167 6.90422 8.5503 6.90422C9.3168 6.90422 10.1174 7.04159 10.1174 7.04159V8.77409H9.23455C8.36567 8.77409 8.09442 9.31747 8.09442 9.87484V11.1961H10.0352L9.72542 13.2313H8.09355V18.1532C11.4395 17.6247 13.9998 14.711 13.9998 11.1961Z" fill="#2F80ED"/>
</g>
<path d="M23.036 16.6523V6.57234H24.52V16.6523H23.036ZM23.764 12.4663V11.2483H29.308V12.4663H23.764ZM23.764 7.79034V6.57234H29.686V7.79034H23.764ZM35.1296 16.6523C35.0829 16.475 35.0503 16.279 35.0316 16.0643C35.0223 15.8497 35.0176 15.5883 35.0176 15.2803H34.9476V11.8783C34.9476 11.421 34.8309 11.0803 34.5976 10.8563C34.3736 10.623 34.0143 10.5063 33.5196 10.5063C33.0436 10.5063 32.6609 10.5997 32.3716 10.7863C32.0916 10.973 31.9283 11.239 31.8816 11.5843H30.4956C30.5609 10.9123 30.8643 10.3757 31.4056 9.97434C31.9469 9.57301 32.6703 9.37234 33.5756 9.37234C34.5089 9.37234 35.2089 9.59168 35.6756 10.0303C36.1423 10.4597 36.3756 11.0943 36.3756 11.9343V15.2803C36.3756 15.495 36.3896 15.7143 36.4176 15.9383C36.4456 16.1623 36.4876 16.4003 36.5436 16.6523H35.1296ZM32.6656 16.7923C31.9376 16.7923 31.3589 16.615 30.9296 16.2603C30.5003 15.8963 30.2856 15.4063 30.2856 14.7903C30.2856 14.1557 30.5096 13.6563 30.9576 13.2923C31.4149 12.919 32.0683 12.667 32.9176 12.5363L35.2696 12.1583V13.1803L33.1416 13.5163C32.6656 13.591 32.3063 13.717 32.0636 13.8943C31.8303 14.0717 31.7136 14.3283 31.7136 14.6643C31.7136 14.991 31.8209 15.2383 32.0356 15.4063C32.2596 15.565 32.5816 15.6443 33.0016 15.6443C33.5616 15.6443 34.0236 15.509 34.3876 15.2383C34.7609 14.9677 34.9476 14.627 34.9476 14.2163L35.1296 15.2523C34.9616 15.747 34.6629 16.1297 34.2336 16.4003C33.8043 16.6617 33.2816 16.7923 32.6656 16.7923ZM41.2615 16.7923C40.5802 16.7923 39.9735 16.6337 39.4415 16.3163C38.9095 15.9897 38.4895 15.5463 38.1815 14.9863C37.8828 14.4263 37.7335 13.787 37.7335 13.0683C37.7335 12.3497 37.8828 11.715 38.1815 11.1643C38.4895 10.6043 38.9095 10.1657 39.4415 9.84834C39.9735 9.53101 40.5755 9.37234 41.2475 9.37234C41.8168 9.37234 42.3255 9.47968 42.7735 9.69434C43.2215 9.90901 43.5902 10.2077 43.8795 10.5903C44.1688 10.973 44.3555 11.4257 44.4395 11.9483H43.0675C42.9742 11.5283 42.7688 11.1923 42.4515 10.9403C42.1435 10.6883 41.7515 10.5623 41.2755 10.5623C40.8648 10.5623 40.5055 10.665 40.1975 10.8703C39.8895 11.0757 39.6515 11.365 39.4835 11.7383C39.3155 12.1117 39.2315 12.555 39.2315 13.0683C39.2315 13.5723 39.3155 14.0157 39.4835 14.3983C39.6515 14.781 39.8895 15.0797 40.1975 15.2943C40.5055 15.4997 40.8695 15.6023 41.2895 15.6023C41.7468 15.6023 42.1342 15.481 42.4515 15.2383C42.7782 14.9863 42.9882 14.6503 43.0815 14.2303H44.4535C44.3602 14.7437 44.1642 15.1917 43.8655 15.5743C43.5762 15.957 43.2075 16.2557 42.7595 16.4703C42.3115 16.685 41.8122 16.7923 41.2615 16.7923ZM48.9477 16.7923C48.229 16.7923 47.5944 16.6337 47.0437 16.3163C46.5024 15.999 46.0777 15.5603 45.7697 15.0003C45.4617 14.4403 45.3077 13.7963 45.3077 13.0683C45.3077 12.331 45.457 11.687 45.7557 11.1363C46.0637 10.5763 46.493 10.1423 47.0437 9.83434C47.5944 9.52634 48.2244 9.37234 48.9337 9.37234C49.6244 9.37234 50.2217 9.52168 50.7257 9.82034C51.239 10.1097 51.631 10.5157 51.9017 11.0383C52.1817 11.561 52.3217 12.1817 52.3217 12.9003C52.3217 13.0123 52.317 13.1197 52.3077 13.2223C52.3077 13.3157 52.2984 13.4137 52.2797 13.5163H46.2877V12.4243H51.2577L50.8937 12.8583C50.8937 12.093 50.721 11.5097 50.3757 11.1083C50.0304 10.707 49.5497 10.5063 48.9337 10.5063C48.271 10.5063 47.7437 10.735 47.3517 11.1923C46.969 11.6403 46.7777 12.2657 46.7777 13.0683C46.7777 13.8803 46.969 14.515 47.3517 14.9723C47.7437 15.4297 48.285 15.6583 48.9757 15.6583C49.3957 15.6583 49.7597 15.5743 50.0677 15.4063C50.3757 15.229 50.6044 14.9723 50.7537 14.6363H52.1257C51.8924 15.3083 51.4957 15.8357 50.9357 16.2183C50.385 16.601 49.7224 16.7923 48.9477 16.7923ZM57.6191 16.7783C56.9471 16.7783 56.3871 16.6197 55.9391 16.3023C55.4911 15.9757 55.1971 15.523 55.0571 14.9443L55.1971 14.9163V16.6523H53.8111V6.57234H55.2671V11.1503L55.1131 11.1083C55.2717 10.567 55.5797 10.1423 56.0371 9.83434C56.5037 9.52634 57.0637 9.37234 57.7171 9.37234C58.3611 9.37234 58.9164 9.52634 59.3831 9.83434C59.8591 10.1423 60.2231 10.5717 60.4751 11.1223C60.7364 11.673 60.8671 12.317 60.8671 13.0543C60.8671 13.801 60.7317 14.4543 60.4611 15.0143C60.1904 15.5743 59.8124 16.0083 59.3271 16.3163C58.8417 16.6243 58.2724 16.7783 57.6191 16.7783ZM57.3111 15.5743C57.9457 15.5743 58.4497 15.3503 58.8231 14.9023C59.1964 14.4543 59.3831 13.8383 59.3831 13.0543C59.3831 12.2797 59.1964 11.6777 58.8231 11.2483C58.4497 10.8097 57.9411 10.5903 57.2971 10.5903C56.6624 10.5903 56.1537 10.8143 55.7711 11.2623C55.3977 11.701 55.2111 12.3123 55.2111 13.0963C55.2111 13.8617 55.3977 14.4683 55.7711 14.9163C56.1537 15.355 56.6671 15.5743 57.3111 15.5743ZM65.546 16.7923C64.818 16.7923 64.1787 16.6337 63.628 16.3163C63.0773 15.9897 62.648 15.5463 62.34 14.9863C62.032 14.417 61.878 13.773 61.878 13.0543C61.878 12.3263 62.032 11.687 62.34 11.1363C62.6573 10.5857 63.0867 10.1563 63.628 9.84834C64.1787 9.53101 64.818 9.37234 65.546 9.37234C66.2833 9.37234 66.9273 9.53101 67.478 9.84834C68.0287 10.1563 68.4533 10.5857 68.752 11.1363C69.06 11.687 69.214 12.3263 69.214 13.0543C69.214 13.773 69.06 14.417 68.752 14.9863C68.4533 15.5463 68.0287 15.9897 67.478 16.3163C66.9273 16.6337 66.2833 16.7923 65.546 16.7923ZM65.546 15.6023C65.9847 15.6023 66.3627 15.495 66.68 15.2803C67.0067 15.0657 67.2633 14.767 67.45 14.3843C67.6367 14.0017 67.73 13.5537 67.73 13.0403C67.73 12.275 67.5247 11.673 67.114 11.2343C66.7127 10.7863 66.19 10.5623 65.546 10.5623C64.9113 10.5623 64.3887 10.7863 63.978 11.2343C63.5767 11.6823 63.376 12.2843 63.376 13.0403C63.376 13.5537 63.4647 14.0017 63.642 14.3843C63.8287 14.767 64.0853 15.0657 64.412 15.2803C64.748 15.495 65.126 15.6023 65.546 15.6023ZM73.8175 16.7923C73.0895 16.7923 72.4502 16.6337 71.8995 16.3163C71.3488 15.9897 70.9195 15.5463 70.6115 14.9863C70.3035 14.417 70.1495 13.773 70.1495 13.0543C70.1495 12.3263 70.3035 11.687 70.6115 11.1363C70.9288 10.5857 71.3582 10.1563 71.8995 9.84834C72.4502 9.53101 73.0895 9.37234 73.8175 9.37234C74.5548 9.37234 75.1988 9.53101 75.7495 9.84834C76.3002 10.1563 76.7248 10.5857 77.0235 11.1363C77.3315 11.687 77.4855 12.3263 77.4855 13.0543C77.4855 13.773 77.3315 14.417 77.0235 14.9863C76.7248 15.5463 76.3002 15.9897 75.7495 16.3163C75.1988 16.6337 74.5548 16.7923 73.8175 16.7923ZM73.8175 15.6023C74.2562 15.6023 74.6342 15.495 74.9515 15.2803C75.2782 15.0657 75.5348 14.767 75.7215 14.3843C75.9082 14.0017 76.0015 13.5537 76.0015 13.0403C76.0015 12.275 75.7962 11.673 75.3855 11.2343C74.9842 10.7863 74.4615 10.5623 73.8175 10.5623C73.1828 10.5623 72.6602 10.7863 72.2495 11.2343C71.8482 11.6823 71.6475 12.2843 71.6475 13.0403C71.6475 13.5537 71.7362 14.0017 71.9135 14.3843C72.1002 14.767 72.3568 15.0657 72.6835 15.2803C73.0195 15.495 73.3975 15.6023 73.8175 15.6023ZM78.981 16.6523V6.39034H80.437V16.6523H78.981ZM83.615 16.6523L80.101 12.9423L83.503 9.51234H85.337L81.473 13.2643L81.543 12.6063L85.477 16.6523H83.615Z" fill="#303335"/>
<defs>
<clipPath id="clip0_4187_37329">
<rect y="4.15234" width="14" height="14" rx="7" fill="white"/>
</clipPath>
</defs>
</svg>
