<svg width="20" height="16" viewBox="0 0 20 16" fill="none" xmlns="http://www.w3.org/2000/svg">
<path d="M14.7476 1.46158C16.9748 1.46158 18.7873 3.27401 18.7873 5.50124V13.1641C18.7873 13.9137 18.1834 14.5259 17.4363 14.5384C17.4288 14.5384 17.4213 14.5384 17.4138 14.5384C16.655 14.5384 16.0386 13.8887 16.0386 13.1275V5.52206C16.0386 4.68415 15.3357 4.00199 14.4977 4.00199C14.4386 4.00199 14.3795 4.00532 14.3195 4.01198C13.5357 4.10194 12.9568 4.79159 12.9568 5.58037V13.1641C12.9568 13.5547 13.2742 13.8721 13.6648 13.8721C13.6807 13.8721 13.6973 13.8713 13.7131 13.8704C14.0888 13.8454 14.3728 13.5156 14.3728 13.1391V6.12593C14.3728 5.94185 14.5219 5.79276 14.706 5.79276C14.8901 5.79276 15.0391 5.94185 15.0391 6.12593V13.1641C15.0391 13.9137 14.4353 14.5259 13.6881 14.5384C13.6807 14.5384 13.6732 14.5384 13.6657 14.5384C12.9069 14.5384 12.2905 13.8887 12.2905 13.1275V5.52206C12.2905 4.31683 13.2917 3.33565 14.4977 3.33565C14.5652 3.33565 14.6335 3.33898 14.7018 3.34481C15.8454 3.44976 16.705 4.4401 16.705 5.58786V13.1641C16.705 13.5547 17.0223 13.8721 17.413 13.8721C17.4288 13.8721 17.4454 13.8713 17.4613 13.8704C17.8369 13.8454 18.1209 13.5156 18.1209 13.1391V5.50124C18.1209 3.64133 16.6075 2.12792 14.7476 2.12792C14.721 2.12792 14.6935 2.12792 14.666 2.12875C12.8244 2.17206 11.3743 3.72212 11.3743 5.56454V13.1641C11.3743 13.9137 10.7704 14.5259 10.0233 14.5384C10.0158 14.5384 10.0083 14.5384 10.0008 14.5384C9.24202 14.5384 8.62566 13.8887 8.62566 13.1275V5.50124C8.62566 3.64133 7.11225 2.12792 5.25234 2.12792C5.22569 2.12792 5.1982 2.12792 5.17071 2.12875C3.32913 2.17206 1.87901 3.72212 1.87901 5.56454V13.1641C1.87901 13.5547 2.19636 13.8721 2.587 13.8721C2.60282 13.8721 2.61948 13.8713 2.63531 13.8704C3.01095 13.8454 3.29498 13.5156 3.29498 13.1391V5.52206C3.29498 4.31683 4.25533 3.33565 5.46057 3.33565C5.47223 3.33565 5.48472 3.33565 5.49638 3.33565C6.68579 3.35481 7.62616 4.35681 7.62616 5.54622V13.1641C7.62616 13.9137 7.02229 14.5259 6.27516 14.5384C6.26767 14.5384 6.26017 14.5384 6.25268 14.5384C5.49472 14.5384 4.87752 13.8887 4.87752 13.1275V6.12593C4.87752 5.94185 5.02662 5.79276 5.21069 5.79276C5.39477 5.79276 5.54386 5.94185 5.54386 6.12593V13.1641C5.54386 13.5547 5.8612 13.8721 6.25184 13.8721C6.26767 13.8721 6.28433 13.8713 6.30015 13.8704C6.6758 13.8454 6.95982 13.5156 6.95982 13.1391V5.52206C6.95982 4.68415 6.29849 4.00199 5.46057 4.00199C5.45141 4.00199 5.44141 4.00199 5.43225 4.00199C4.60932 4.01781 3.96131 4.71413 3.96131 5.53706V13.1641C3.96131 13.9137 3.35745 14.5259 2.61032 14.5384C2.60282 14.5384 2.59532 14.5384 2.58783 14.5384C1.82987 14.5384 1.21268 13.8887 1.21268 13.1275V5.50124C1.21268 3.27401 3.02511 1.46158 5.25234 1.46158C5.27816 1.46158 5.30481 1.46158 5.33063 1.46241C7.54203 1.50406 9.292 3.35731 9.292 5.56871V13.1641C9.292 13.5547 9.60934 13.8721 9.99998 13.8721C10.0158 13.8721 10.0325 13.8713 10.0483 13.8704C10.4239 13.8454 10.708 13.5156 10.708 13.1391V5.56871C10.708 3.35647 12.4579 1.50406 14.6693 1.46241C14.696 1.46158 14.7218 1.46158 14.7476 1.46158ZM14.7476 0.378784C14.7151 0.378784 14.6818 0.378784 14.6493 0.379617C13.2942 0.405438 12.0256 0.964327 11.0778 1.95217C10.6097 2.44109 10.2465 3.00665 9.99998 3.61967C9.75427 3.00665 9.39112 2.44109 8.92218 1.95217C7.97515 0.964327 6.70662 0.405438 5.35062 0.379617C5.31814 0.378784 5.28482 0.378784 5.25234 0.378784C3.88552 0.378784 2.59949 0.911853 1.63164 1.88054C0.662951 2.84839 0.129883 4.13442 0.129883 5.50124V13.1275C0.129883 14.5026 1.23267 15.6212 2.58783 15.6212C2.60116 15.6212 2.61448 15.6212 2.62781 15.6212C3.33912 15.6096 3.97964 15.2897 4.42275 14.7908C4.87336 15.3005 5.5272 15.6212 6.25268 15.6212C6.266 15.6212 6.27933 15.6212 6.29265 15.6212C7.02646 15.6087 7.6853 15.2689 8.12924 14.7425C8.58069 15.2797 9.25202 15.6212 10.0008 15.6212C10.0141 15.6212 10.0275 15.6212 10.0408 15.6212C10.7521 15.6096 11.3926 15.2897 11.8357 14.7908C12.2863 15.3005 12.9394 15.6212 13.6657 15.6212C13.679 15.6212 13.6923 15.6212 13.7056 15.6212C14.4394 15.6087 15.0983 15.2689 15.5422 14.7425C15.9937 15.2797 16.665 15.6212 17.4138 15.6212C17.4271 15.6212 17.4405 15.6212 17.4538 15.6212C18.7856 15.5987 19.8701 14.4968 19.8701 13.1641V5.50124C19.8701 2.67681 17.5721 0.378784 14.7476 0.378784Z" fill="#8759F2"/>
</svg>
