<svg width="24" height="24" viewBox="0 0 24 24" fill="none" xmlns="http://www.w3.org/2000/svg">
<g clip-path="url(#clip0_3831_102864)">
<path d="M11.3629 4.40625C10.2004 4.61718 9.1832 5.45156 8.7332 6.5625C8.33008 7.57031 8.42852 8.72812 9.00508 9.68437C9.21133 10.0219 9.60977 10.4625 9.87695 10.6453C9.99414 10.725 10.0691 10.8047 10.0457 10.8234C10.027 10.8422 9.90508 10.8984 9.77383 10.9453C9.39414 11.0812 8.7332 11.4375 8.3582 11.7047C8.16601 11.8406 7.99726 11.9531 7.97852 11.9531C7.95976 11.9531 7.8707 11.8922 7.78164 11.8219C7.55195 11.6344 7.02227 11.3203 6.72227 11.1984L6.46445 11.0906L6.7457 10.8094C7.37852 10.1672 7.6457 9.37968 7.53789 8.48437C7.41133 7.43437 6.7082 6.58125 5.67227 6.225C5.24102 6.075 4.43008 6.075 3.96133 6.22031C3.16445 6.47343 2.50352 7.11562 2.19414 7.95C2.10508 8.18437 2.08633 8.32031 2.08633 8.85937C2.09102 9.44531 2.10039 9.51562 2.22227 9.82031C2.40039 10.2562 2.62539 10.5891 2.92539 10.8656L3.17383 11.0906L2.91133 11.1937C2.43789 11.3766 1.87539 11.7609 1.42539 12.2062C0.511328 13.1109 0.0613281 14.1187 0.0144531 15.3609L-0.0136719 15.9844H2.88789H5.78945L5.77539 16.6828C5.76602 17.0906 5.78008 17.4891 5.81289 17.6391C6.00508 18.5812 6.86289 19.4203 7.80039 19.5891C7.98789 19.6219 9.4082 19.6406 12.0191 19.6406C16.3457 19.6406 16.266 19.6453 16.8332 19.3547C17.2316 19.1531 17.7566 18.6234 17.9441 18.2297C18.1551 17.7844 18.1973 17.5078 18.1785 16.6969L18.1645 15.9844H21.0848H24.0004V15.525C24.0004 14.6859 23.752 13.8281 23.2879 13.0781C22.8191 12.3094 21.7926 11.4375 21.0426 11.1703L20.8316 11.0953L21.1457 10.7812C21.6988 10.2281 21.966 9.51093 21.9238 8.71875C21.8723 7.7625 21.4504 7.02187 20.6676 6.51562C20.2551 6.24843 19.8848 6.13593 19.3363 6.10781C18.4785 6.06562 17.8176 6.31875 17.227 6.90937C16.6879 7.45312 16.4348 8.08125 16.4395 8.85937C16.4441 9.61406 16.6785 10.2 17.2082 10.7578L17.5176 11.0812L17.0676 11.2969C16.8191 11.4187 16.477 11.6203 16.3082 11.7516L15.9941 11.9906L15.6051 11.7094C15.202 11.4187 14.5973 11.0953 14.1801 10.9453C14.0535 10.8984 13.927 10.8422 13.9082 10.8234C13.8848 10.8047 13.9598 10.725 14.077 10.6453C14.1941 10.5656 14.4004 10.3781 14.5363 10.2234C15.1926 9.50156 15.5113 8.59687 15.4551 7.64062C15.366 6.16406 14.4004 4.94531 12.9613 4.5C12.5863 4.3875 11.7566 4.33593 11.3629 4.40625ZM12.4926 5.22656C13.0082 5.33437 13.4676 5.5875 13.852 5.97187C14.3957 6.52031 14.6395 7.09687 14.6395 7.85156C14.6395 8.60625 14.3957 9.17812 13.8426 9.73125C12.7457 10.8328 11.077 10.8 10.0223 9.66093C9.65664 9.26718 9.49726 8.97656 9.37539 8.50312C9.2582 8.04375 9.2582 7.65937 9.37539 7.2C9.64727 6.14062 10.4301 5.42812 11.602 5.18437C11.8035 5.14218 12.1785 5.16093 12.4926 5.22656ZM5.30195 6.96562C5.68633 7.08281 5.8832 7.19531 6.15977 7.47187C6.92852 8.24531 6.9332 9.43125 6.16914 10.2C4.94102 11.4281 2.85977 10.5703 2.85977 8.83593C2.85977 7.57031 4.11133 6.61406 5.30195 6.96562ZM19.7441 6.98437C20.7238 7.28437 21.3191 8.32031 21.0754 9.28125C20.6863 10.7906 18.877 11.2828 17.7848 10.1812C17.4238 9.81093 17.2504 9.37968 17.2504 8.83125C17.2504 7.54218 18.5113 6.60468 19.7441 6.98437ZM12.6332 11.3953C13.8004 11.5406 14.8457 12.0469 15.7363 12.9047C16.8426 13.9734 17.4379 15.4406 17.3816 16.9687C17.3629 17.475 17.3488 17.5453 17.2129 17.8266C17.0254 18.2062 16.6504 18.5625 16.2754 18.7125L16.0082 18.8203L12.1504 18.8344C9.65195 18.8437 8.19883 18.8297 8.03008 18.7969C7.43477 18.6891 6.98945 18.3516 6.73164 17.8125C6.58633 17.5078 6.58633 17.5031 6.59102 16.7344C6.59102 15.8578 6.66602 15.45 6.96602 14.7281C7.89883 12.4641 10.2191 11.1 12.6332 11.3953ZM5.70977 11.7187C6.17852 11.8312 6.69414 12.0609 7.07852 12.3328C7.2332 12.4406 7.35977 12.5391 7.35977 12.5484C7.35977 12.5625 7.26602 12.6797 7.15352 12.8109C6.7082 13.3406 6.26289 14.1562 6.04258 14.8453L5.93477 15.1875H3.36602H0.792578L0.820703 15.0094C1.14883 13.05 2.80352 11.6344 4.78164 11.6297C5.16602 11.625 5.4332 11.6531 5.70977 11.7187ZM20.0066 11.7C20.7895 11.8594 21.502 12.2625 22.0832 12.8766C22.641 13.4625 23.016 14.1891 23.1473 14.9391L23.1895 15.1875H20.5973H18.0051L17.9301 14.9156C17.752 14.3016 17.302 13.4625 16.8238 12.8578L16.5941 12.5719L16.7395 12.45C17.0957 12.1453 17.8035 11.8172 18.3379 11.7C18.7504 11.6109 19.5707 11.6109 20.0066 11.7Z" fill="white"/>
</g>
<defs>
<clipPath id="clip0_3831_102864">
<rect width="24" height="24" fill="white"/>
</clipPath>
</defs>
</svg>
