<svg width="24" height="25" viewBox="0 0 24 25" fill="none" xmlns="http://www.w3.org/2000/svg">
<g clip-path="url(#clip0_3831_103968)">
<path d="M6.5 11.5029L9.5 9.50293L12.5 8.50293L17.5 11.0029L20 15.5029L20.5 19.0029L19 22.0029L16 23.0029L12 23.5029L8.5 23.0029L5 22.0029L4 19.0029L4.5 15.5029L6.5 11.5029Z" fill="#28A745"/>
<path d="M10.453 0.561523C9.21086 0.716209 8.04836 1.00684 7.82336 1.22246C7.6593 1.38184 7.57024 1.64433 7.61242 1.85996C7.62649 1.94434 8.05305 2.73183 8.55461 3.60371L9.46399 5.19277L9.18274 5.32402C8.79836 5.50684 8.5968 5.6709 8.35774 5.99434C8.06242 6.39277 7.95461 6.7959 7.97805 7.37715C7.99211 7.80371 8.01086 7.86465 8.17961 8.20683C8.28274 8.41309 8.3718 8.58652 8.38117 8.60058C8.38586 8.61465 8.27336 8.69902 8.12336 8.7834C7.45305 9.18652 6.5718 9.93184 5.98586 10.5928C4.51867 12.2521 3.56711 14.1693 3.15461 16.2881C2.99055 17.1459 2.94836 18.6365 3.07024 19.41C3.47805 22.0115 5.15149 23.5443 8.26399 24.1818C9.44992 24.4256 10.0359 24.4678 12.1405 24.4678C14.2452 24.4678 14.8312 24.4256 16.0171 24.1818C19.1249 23.549 20.803 22.0068 21.2109 19.41C21.3327 18.6365 21.2905 17.1459 21.1265 16.2881C20.578 13.4568 18.9655 10.8318 16.7812 9.20996C16.5702 9.05527 16.2843 8.86309 16.1437 8.77871C16.003 8.69433 15.8952 8.61465 15.8999 8.60058C15.9093 8.58652 15.9984 8.41309 16.1015 8.20683C16.2702 7.86465 16.289 7.80371 16.303 7.37715C16.3265 6.7959 16.2187 6.39277 15.9234 5.99434C15.6843 5.6709 15.4827 5.50684 15.0984 5.32402L14.8171 5.19277L15.7405 3.58027C16.6171 2.05684 16.664 1.9584 16.664 1.72402C16.664 1.46621 16.5796 1.30215 16.3499 1.1334C16.1999 1.0209 15.1265 0.75371 14.2968 0.627148C13.4671 0.495897 11.2827 0.458397 10.453 0.561523ZM13.4296 1.9959C13.903 2.03809 14.7749 2.17402 14.8077 2.20683C14.8171 2.21621 14.489 2.80684 14.0812 3.51933L13.3359 4.81777H12.1405H10.9452L10.2093 3.5334C9.80149 2.83027 9.46867 2.23965 9.46867 2.2209C9.46867 2.20683 9.54836 2.17871 9.6468 2.15996C11.0484 1.9209 12.1687 1.86934 13.4296 1.9959ZM13.2421 6.32715C13.7718 6.41152 14.4421 6.59902 14.5827 6.69277C14.9765 6.96934 14.9437 7.61152 14.5265 7.82715C14.3577 7.91621 14.278 7.91152 13.6405 7.75215C13.2421 7.65371 13.0874 7.64433 12.1405 7.64433C11.1937 7.64433 11.039 7.65371 10.6405 7.75215C10.003 7.91152 9.92336 7.91621 9.75461 7.82715C9.32336 7.60683 9.3093 6.91777 9.73586 6.67402C9.89524 6.58027 10.5374 6.40684 11.0155 6.32715C11.5124 6.24277 12.7265 6.24277 13.2421 6.32715ZM13.1249 9.14434C13.6171 9.2334 14.3718 9.48184 14.803 9.69746C15.2765 9.93652 16.0452 10.4662 16.4859 10.86C18.0327 12.2381 19.2187 14.31 19.6687 16.4334C19.828 17.2068 19.8796 18.5709 19.7624 19.2225C19.528 20.5865 18.8155 21.5475 17.6015 22.1615C17.1421 22.3912 16.5609 22.5881 15.9327 22.7287C13.8702 23.1881 10.4109 23.1881 8.34836 22.7287C6.06086 22.2178 4.8468 21.1068 4.51867 19.2225C4.40149 18.5709 4.45305 17.2068 4.61242 16.4334C4.95461 14.8256 5.7843 13.11 6.81086 11.8818C8.62492 9.7209 10.8702 8.7459 13.1249 9.14434Z" fill="#303335"/>
<path d="M11.7473 11.2205C11.4848 11.3939 11.4379 11.5252 11.4379 12.1018V12.6268L11.1801 12.7439C10.8144 12.908 10.3973 13.3393 10.2051 13.7424C10.0598 14.0471 10.0551 14.0846 10.0551 14.6471C10.0551 15.2096 10.0598 15.2424 10.2051 15.5424C10.5613 16.2736 11.1285 16.6627 11.9723 16.7611C12.1738 16.7846 12.4035 16.8408 12.4785 16.8877C12.9051 17.1361 12.9004 17.8205 12.4738 18.0455C12.3004 18.1346 12.0004 18.1346 11.7988 18.0502C11.7144 18.0174 11.5176 17.8721 11.3676 17.7314C11.0207 17.4127 10.9316 17.3658 10.6879 17.3658C10.3082 17.3658 10.0316 17.6096 9.99414 17.9705C9.98476 18.1018 9.98945 18.2611 10.0035 18.3314C10.0738 18.6033 10.791 19.2268 11.2457 19.4096L11.4379 19.4846V20.0096C11.4379 20.5814 11.4848 20.7127 11.7473 20.8861C11.9301 21.008 12.3519 21.008 12.5348 20.8861C12.7973 20.7127 12.8441 20.5814 12.8441 20.0096V19.4846L13.116 19.3533C13.4816 19.1752 13.8707 18.7768 14.0676 18.3736C14.2223 18.0549 14.2269 18.0314 14.2269 17.4596C14.2269 16.8877 14.2223 16.8643 14.0676 16.5455C13.7348 15.8611 13.116 15.4346 12.3426 15.3455C11.7332 15.2752 11.4848 15.0736 11.4848 14.6377C11.4848 14.2252 11.7801 13.9627 12.2113 14.0002C12.441 14.0189 12.5066 14.0518 12.9894 14.4033C13.1301 14.5064 13.3973 14.5486 13.5848 14.4971C14.0113 14.3799 14.2223 13.9299 14.0441 13.508C13.9551 13.2924 13.5379 12.9408 13.1629 12.758L12.8441 12.608V12.0924C12.8441 11.6658 12.8301 11.5533 12.7551 11.4408C12.6098 11.2252 12.4316 11.1314 12.141 11.1314C11.9676 11.1314 11.841 11.1596 11.7473 11.2205Z" fill="white"/>
</g>
<defs>
<clipPath id="clip0_3831_103968">
<rect width="24" height="24" fill="white" transform="translate(0 0.50293)"/>
</clipPath>
</defs>
</svg>
