<svg width="106" height="32" viewBox="0 0 106 32" fill="none" xmlns="http://www.w3.org/2000/svg">
<path d="M14.9237 0.328922C10.7289 1.08721 6.5503 2.53924 3.32355 4.33009C0.90349 5.68532 0 7.31483 0 10.4448C0 11.7032 0.0484013 11.9452 0.322675 12.2034C0.871222 12.7035 1.72631 12.5422 4.45292 11.4289C5.87268 10.8481 7.45379 10.2512 7.98621 10.0737L8.95423 9.78329L8.34115 9.73489C8.01847 9.70263 6.96978 9.79943 6.05016 9.9285C4.0173 10.235 3.64623 10.2512 3.80756 10.0092C4.21091 9.33155 11.5518 6.89535 14.2138 6.54041C15.198 6.41134 15.2787 6.18547 13.391 8.81527C8.50249 15.6076 4.13024 22.9807 2.98474 26.401C2.59753 27.5304 2.56527 27.8692 2.61367 29.4342C2.66207 31.1444 2.6782 31.1928 3.12995 31.5961C3.61396 31.9995 3.61396 31.9995 6.11469 31.9188C9.06717 31.8381 11.2614 31.4348 14.117 30.499C22.4582 27.724 29.1053 21.7384 31.0897 15.2365C31.4608 13.9781 31.5092 13.5425 31.5253 11.3967C31.5253 8.6378 31.3317 7.65364 30.3637 5.66919C29.2182 3.29753 26.7498 1.39375 23.7166 0.490259C21.9903 -0.0098877 17.2631 -0.106689 14.9237 0.328922ZM23.0229 6.41134C27.0563 7.23416 29.0569 9.58969 28.8471 13.2359C28.7019 15.6721 27.6855 17.6566 25.33 20.0282C22.4098 22.9807 18.2795 25.2555 13.5685 26.514C11.8744 26.9657 11.455 27.0141 9.16397 27.0303C6.72777 27.0464 6.61484 27.0303 6.25989 26.6753C5.90495 26.3204 5.90495 26.3042 6.16309 25.546C6.43737 24.8038 9.26077 19.5119 10.4547 17.5275C10.7773 16.9951 11.9874 15.0752 13.149 13.252C16.2951 8.36352 16.3435 8.26672 16.2628 7.12123L16.1983 6.1532H18.9894C20.9255 6.1532 22.1839 6.23387 23.0229 6.41134Z" fill="white"/>
<path d="M88.0802 1.90476C85.4182 4.61523 81.9817 9.13268 77.0447 16.5058C74.8344 19.7971 73.9471 21.4266 73.5437 22.9754C73.2856 23.9435 73.2372 24.0241 72.253 24.6856C71.2366 25.3632 70.6719 25.5084 70.3492 25.1858C70.2202 25.0567 70.3008 24.7179 70.7042 23.9273C71.5754 22.1849 71.9787 20.636 71.9949 19.0227C71.9949 17.6513 71.9787 17.5706 71.5431 17.1995C71.3011 16.9898 70.9785 16.8123 70.8655 16.8123C70.6719 16.8123 70.6719 16.7155 70.8978 16.2477C71.2366 15.5539 71.0269 15.0054 70.2847 14.6182C69.8814 14.4084 69.4457 14.3761 68.3002 14.4245C67.0579 14.4729 66.6546 14.5697 65.7188 15.0054C65.1058 15.2958 64.1539 15.8443 63.6053 16.2315C62.3469 17.135 60.2172 19.3937 59.5235 20.5715C58.862 21.6525 58.2167 23.2174 58.2005 23.6853C58.2005 23.8951 57.8456 24.2984 57.2002 24.8308C55.2803 26.3635 54.5866 26.8314 53.3765 27.4283C51.8761 28.1705 50.2143 28.3318 49.3915 27.8156C48.8107 27.4445 48.3912 26.6539 48.2621 25.6214L48.1492 24.8792L49.3431 24.3629C55.0222 21.8945 58.1037 19.1679 58.3296 16.409C58.4103 15.4087 58.0876 14.6666 57.3938 14.3116C56.7808 13.9889 54.9576 14.0051 53.8283 14.3277C50.182 15.4087 45.5839 19.7325 44.503 23.1206C44.3578 23.5562 43.8254 24.1532 42.454 25.3794C40.2275 27.3961 39.6306 27.7833 38.7271 27.7833C37.2912 27.7833 36.5006 26.4603 36.5974 24.2016L36.662 22.8464L38.0333 21.3298C42.1474 16.7801 45.2451 11.8109 46.3583 8.01945C46.8424 6.30927 46.9876 3.66334 46.6004 3.21159C46.3099 2.84052 45.5839 2.87279 44.7611 3.27613C43.8254 3.76014 41.0342 6.59968 39.8564 8.27759C36.6136 12.8757 33.9515 18.5548 33.1287 22.6528C32.4027 26.2183 33.1932 30.3163 34.855 31.5102C36.1941 32.4782 38.3076 31.9942 40.3082 30.2356C41.244 29.4289 42.8089 27.7672 43.6156 26.7507L44.1158 26.1215L44.2126 27.1702C44.4062 29.2676 45.3903 30.9616 46.8424 31.6554C47.4716 31.9619 47.7781 32.0103 49.1334 31.9458C50.4725 31.8974 50.8597 31.8167 51.7954 31.3811C53.2797 30.6712 54.5866 29.6548 56.5549 27.6542C57.4584 26.7346 58.2005 26.0892 58.2005 26.2183C58.2005 26.8959 58.9265 28.6545 59.5396 29.5096C60.4754 30.768 61.5241 31.3488 62.8954 31.3488C64.3313 31.365 65.6059 30.6874 67.2677 29.0579C68.4616 27.864 68.5907 27.7833 69.236 27.7833C70.2524 27.7833 71.4302 27.3799 72.2207 26.7346C72.608 26.4281 72.9952 26.1699 73.0597 26.1699C73.1404 26.1699 73.2049 26.6055 73.2049 27.1379C73.2049 29.3644 73.8825 30.6874 75.0119 30.6874C75.6572 30.6874 75.8508 30.5099 78.158 27.6219C80.3683 24.8631 82.4495 22.5076 83.3853 21.7009C84.2727 20.9426 85.0632 20.3618 85.2084 20.3618C85.2568 20.3618 84.9019 20.991 84.4017 21.7493C82.2882 25.0244 81.2718 27.4767 81.2718 29.2676C81.2718 30.8648 81.8042 31.5263 83.111 31.5263C84.4985 31.5263 86.0958 30.4776 89.1289 27.5574C90.1131 26.6217 90.9843 25.8472 91.0811 25.8472C91.4199 25.8472 93.8884 23.0238 94.6628 21.7493L95.4856 20.4263L97.4539 20.0714C98.5349 19.8778 99.4707 19.7164 99.5352 19.7164C99.5997 19.7164 99.1964 20.3456 98.6156 21.12C97.3894 22.7657 96.26 24.8792 95.8728 26.2344C95.2759 28.2673 95.8728 30.6712 97.099 31.1714C97.7766 31.4618 98.7446 31.3972 99.4868 31.01C100.423 30.5422 102.278 28.9772 104.069 27.1863L105.65 25.5891L105.601 24.6695L105.553 23.7499L104.262 24.7179C101.875 26.5087 100.277 27.0895 99.5997 26.3958C98.7608 25.5568 99.9547 22.9754 102.52 20.0714C104.053 18.345 104.246 17.9578 104.117 16.9253C104.053 16.4897 103.859 15.8443 103.682 15.5055L103.375 14.8763L102.036 14.8924C101.31 14.8924 99.8095 15.0215 98.6962 15.1828C97.583 15.3442 96.6634 15.4571 96.6311 15.441C96.5988 15.4087 96.6956 15.1667 96.8247 14.8924C97.1474 14.2793 97.1635 13.6017 96.8409 13.4888C95.534 12.9886 92.2105 16.6187 91.5812 19.2324C91.3876 20.0714 91.678 20.9748 92.2589 21.2975C92.517 21.4427 92.7267 21.6363 92.7267 21.7331C92.7267 21.8945 91.4683 23.6369 91.2908 23.7176C91.2424 23.7337 90.5487 24.2177 89.742 24.7985C87.9834 26.057 86.8379 26.6539 86.1764 26.6539C85.5472 26.6539 85.3052 26.3958 85.3052 25.702C85.3052 24.5565 86.5475 22.5237 89.2257 19.3131C89.8227 18.6193 90.3067 17.8933 90.3067 17.732C90.3067 17.3125 89.7581 16.3122 89.2741 15.8604C88.9353 15.5378 88.7578 15.4894 88.048 15.5539C86.5153 15.6991 84.1113 17.619 79.4648 22.3623L76.593 25.2826V24.1048V22.927L77.8998 21.4427C83.8532 14.715 92.5654 2.58237 92.5654 1.03354C92.5654 0.484989 91.9685 0.146181 90.9359 0.0655117L89.9679 0.000976562L88.0802 1.90476ZM44.0835 7.93878C44.5998 8.77773 40.9051 15.5055 38.5173 18.103C37.7591 18.942 37.7107 18.9581 37.8075 18.5064C38.7594 14.118 43.2284 6.56741 44.0835 7.93878ZM54.8608 17.0382C55.006 17.3932 54.2316 18.7968 53.4249 19.7003C53.0216 20.152 52.2472 20.8458 51.6986 21.2653C50.7467 21.9751 49.0204 22.9432 48.6977 22.9432C48.4719 22.9432 48.73 22.1526 49.2786 21.1362C50.4563 18.9259 54.4575 15.9895 54.8608 17.0382ZM67.4774 19.7648C67.0257 20.6683 66.5739 21.7977 66.461 22.2655C66.219 23.3142 66.2029 24.9276 66.4287 25.6859C66.5739 26.2022 66.5578 26.2828 66.1545 26.6055C64.6702 27.8156 62.96 28.2512 61.9113 27.7026C61.2498 27.3638 61.1691 26.8314 61.4918 25.2019C61.879 23.3142 62.234 22.6528 63.5247 21.4266C64.4443 20.5554 67.8969 18.103 68.2034 18.103C68.2518 18.103 67.9292 18.8452 67.4774 19.7648Z" fill="white"/>
</svg>
