<svg width="32" height="34" viewBox="0 0 32 34" fill="none" xmlns="http://www.w3.org/2000/svg">
<rect width="5.32589" height="21.6165" rx="2.66295" transform="matrix(0.866032 0.499989 -0.500011 0.866019 10.9141 2.98193)" fill="#FF546D"/>
<rect width="5.55156" height="22.9716" rx="2.77578" transform="matrix(0.866037 0.499979 -0.500021 0.866013 26.6211 10.4722)" fill="#00D4E6"/>
<path d="M5.57844 23.842C3.5638 23.1352 0.763588 22.4838 1.03848 20.3666C1.08425 20.014 1.19897 19.6644 1.38785 19.3373C1.65168 18.8804 2.02584 18.5268 2.45725 18.2908C4.09662 17.3942 6.17239 18.362 7.95108 18.9344C9.32477 19.3765 11.1773 20.1362 13.4366 21.4405C15.6958 22.7448 17.28 23.9692 18.3497 24.9378C19.7349 26.1919 21.6109 27.5055 21.6541 29.3735C21.6654 29.8651 21.5463 30.3659 21.2824 30.8228C21.0936 31.1499 20.8482 31.4241 20.5657 31.64C18.8695 32.9367 16.9052 30.8374 15.2857 29.4462C14.2467 28.5537 12.759 27.4596 10.6607 26.2482C8.5624 25.0368 6.87094 24.2955 5.57844 23.842Z" fill="#6D86F5"/>
<path d="M16.7143 4.55394C15.0949 3.16272 13.1306 1.06349 11.4344 2.36015C11.1519 2.57609 10.9065 2.85022 10.7176 3.17734C10.4538 3.6343 10.3346 4.13509 10.346 4.62666C10.3891 6.49463 12.2652 7.80831 13.6503 9.06239C14.7201 10.0309 16.3042 11.2553 18.5635 12.5597C20.8228 13.864 22.6753 14.6236 24.049 15.0657C25.8277 15.6382 27.9034 16.606 29.5428 15.7093C29.9742 15.4734 30.3484 15.1198 30.6122 14.6629C30.8011 14.3357 30.9158 13.9862 30.9616 13.6336C31.2365 11.5164 28.4363 10.865 26.4216 10.1581C25.1291 9.70466 23.4377 8.96338 21.3394 7.752C19.2411 6.54061 17.7533 5.44647 16.7143 4.55394Z" fill="#FFAA50"/>
<rect width="5.32589" height="12.218" rx="2.66295" transform="matrix(0.866032 0.499989 -0.500011 0.866019 11.8525 1.35254)" fill="#FF546D"/>
<rect width="5.55156" height="13.5047" rx="2.77578" transform="matrix(0.866032 0.499989 -0.500011 0.866019 21.8857 18.6709)" fill="#00D4E6"/>
</svg>
