<svg width="20" height="20" viewBox="0 0 20 20" fill="none" xmlns="http://www.w3.org/2000/svg">
<path d="M3.40426 14.1925C3.40426 16.3864 2.39743e-08 16.3864 -7.1923e-08 14.1925L-5.27638e-07 1.76693C-6.23536e-07 -0.426947 3.40426 -0.426947 3.40426 1.76693L3.40426 14.1925Z" fill="#E77B64"/>
<path d="M8.93649 18.2335C8.93649 20.4274 5.53223 20.4274 5.53223 18.2335L5.53223 5.80794C5.53223 3.61407 8.93649 3.61407 8.93649 5.80794L8.93649 18.2335Z" fill="#EE6CA5"/>
<path d="M14.4677 14.1925C14.4677 16.3864 11.0635 16.3864 11.0635 14.1925L11.0635 1.76693C11.0635 -0.426947 14.4677 -0.426947 14.4677 1.76693L14.4677 14.1925Z" fill="#65B12A"/>
<path d="M20 18.2335C20 20.4274 16.5957 20.4274 16.5957 18.2335L16.5957 6.20794C16.5957 4.01407 20 4.01407 20 6.20794L20 18.2335Z" fill="#59ADCD"/>
</svg>
