<svg width="512" height="512" viewBox="0 0 512 512" fill="none" xmlns="http://www.w3.org/2000/svg">
<path d="M478.543 307.142C465.049 348.038 435.982 392.859 393.205 407.45C328.57 429.502 322.795 482.512 205.486 482.151C187.196 482.096 170.218 480.181 154.554 476.682C146.134 474.801 138.09 472.451 130.437 469.681C60.9442 444.614 22.8955 384.999 17.4662 321.294C10.3115 237.508 67.3299 195.237 104.487 170.34C141.644 145.443 184.011 52.8991 299.336 52.3482C316.919 52.2714 334.531 53.9948 351.687 57.9412C390.845 66.932 431.138 88.608 455.341 121.638C457.159 124.119 458.898 126.664 460.57 129.26C493.216 180.051 496.942 251.388 478.543 307.142Z" fill="#3E007C"/>
<path opacity="0.7" d="M478.543 307.142C465.049 348.038 435.982 392.859 393.205 407.45C328.57 429.502 322.795 482.512 205.486 482.151C187.196 482.096 170.218 480.181 154.554 476.682C146.134 474.801 138.09 472.451 130.437 469.681C60.9442 444.614 22.8955 384.999 17.4662 321.294C10.3115 237.508 67.3299 195.237 104.487 170.34C141.644 145.443 184.011 52.8991 299.336 52.3482C316.919 52.2714 334.531 53.9948 351.687 57.9412C390.845 66.932 431.138 88.608 455.341 121.638C457.159 124.119 458.898 126.664 460.57 129.26C493.216 180.051 496.942 251.388 478.543 307.142Z" fill="white"/>
<path d="M494.272 464.004H21.4473" stroke="#263238" stroke-miterlimit="10" stroke-linecap="round" stroke-linejoin="round"/>
<path d="M39.0778 399.219C41.2835 400.181 46.6759 400.06 46.68 400.06C46.7363 400.059 45.5209 396.53 45.4185 396.317C44.2357 393.842 40.493 389.754 37.4487 390.166C35.2553 390.463 34.0357 392.657 34.5303 394.722C35.0371 396.831 37.2009 398.398 39.0778 399.219Z" fill="#263238"/>
<path d="M40.9394 414.839C43.227 415.173 48.0398 413.777 48.4218 413.665C49.1816 416.359 50.18 419.062 51.3412 421.742C52.0027 423.275 52.7175 424.798 53.4537 426.316C53.0144 425.673 52.6171 425.102 52.5536 425.027C50.7575 422.951 46.0696 419.998 43.2424 421.199C41.2046 422.064 40.6087 424.504 41.6306 426.364C42.6751 428.265 45.1767 429.205 47.2042 429.5C49.2625 429.8 53.3892 428.692 54.4777 428.385C54.7655 428.964 55.0471 429.546 55.3379 430.124C56.7315 432.899 58.1344 435.662 59.4267 438.415C59.8824 439.384 60.2961 440.356 60.7139 441.327C60.3237 440.756 59.9899 440.278 59.9315 440.211C58.1365 438.136 53.4486 435.182 50.6203 436.384C48.5825 437.249 47.9856 439.689 49.0085 441.549C50.054 443.45 52.5546 444.39 54.5822 444.686C56.5462 444.972 60.3647 443.984 61.659 443.625C62.0563 444.632 62.4567 445.64 62.7957 446.633C63.0128 447.317 63.2688 447.96 63.4469 448.659C63.6394 449.347 63.8289 450.028 64.0173 450.704C64.3327 452.016 64.6655 453.369 64.9399 454.657C65.1386 455.552 65.3106 456.408 65.4867 457.271C65.0444 456.3 64.1371 454.418 64.0429 454.269C62.5837 451.947 58.3966 448.317 55.4188 449.076C53.2735 449.622 52.315 451.943 53.0441 453.938C53.7886 455.974 56.1182 457.283 58.0781 457.882C60.2357 458.541 65.0126 457.939 65.6086 457.859C65.8953 459.287 66.1595 460.677 66.3889 461.994C66.5118 462.691 66.6183 463.346 66.7268 464.003H68.6263C68.486 463.245 68.3396 462.469 68.1778 461.659C67.8931 460.209 67.5603 458.665 67.203 457.082C67.5624 456.94 69.5991 456.116 71.4044 455.107C72.9773 456.81 77.0067 458.803 77.528 459.056C76.9801 460.405 76.4333 461.711 75.8977 462.935C75.737 463.306 75.5813 463.651 75.4236 464.003H77.4245C77.4747 463.883 77.5239 463.768 77.574 463.643C78.1362 462.276 78.7107 460.803 79.2862 459.287C79.8637 459.408 84.5925 460.368 86.7962 459.871C88.795 459.419 91.2158 458.287 92.1107 456.312C92.9863 454.378 92.2029 451.992 90.1037 451.287C87.1914 450.308 82.7463 453.617 81.1171 455.825C81.0208 455.955 80.1361 457.485 79.5944 458.458C79.8258 457.838 80.0572 457.237 80.2887 456.595C80.7536 455.328 81.1806 454.05 81.6444 452.677C81.8451 452.006 82.0479 451.327 82.2527 450.643C82.4698 449.968 82.6142 449.228 82.7995 448.515C83.1958 446.852 83.5163 445.147 83.801 443.424C84.911 443.828 88.8749 445.207 90.929 445.063C92.9729 444.919 95.537 444.169 96.7208 442.351C97.88 440.571 97.4663 438.094 95.4992 437.079C92.7681 435.671 87.8724 438.267 85.9288 440.203C85.808 440.322 84.568 441.869 83.9044 442.731C84.0672 441.694 84.2352 440.658 84.3662 439.603C84.7441 436.556 85.0318 433.461 85.3329 430.374C85.424 429.429 85.5274 428.488 85.6268 427.545C86.02 427.693 90.6966 429.434 92.9965 429.272C95.0404 429.129 97.6045 428.378 98.7882 426.56C99.9474 424.781 99.5337 422.303 97.5666 421.289C94.8356 419.881 89.9409 422.477 87.9963 424.413C87.8499 424.558 86.0702 426.785 85.6452 427.373C85.8643 425.297 86.1019 423.231 86.4193 421.203C86.8525 418.406 87.4331 415.684 88.1898 413.089C88.3731 413.159 93.2453 414.997 95.6005 414.832C97.6444 414.689 100.21 413.937 101.392 412.119C102.551 410.34 102.138 407.863 100.171 406.849C97.4396 405.441 92.5449 408.037 90.6003 409.972C90.4478 410.124 88.5339 412.521 88.2175 412.98C88.2636 412.825 88.2933 412.661 88.3404 412.507C89.1841 409.748 90.3474 407.18 91.5547 404.83C92.2531 403.462 92.9985 402.195 93.7502 400.977C94.6226 401.412 98.6316 403.359 100.768 403.445C102.816 403.527 105.446 403.062 106.823 401.386C108.17 399.744 108.031 397.237 106.188 396.013C103.628 394.313 98.4769 396.356 96.3317 398.066C96.2149 398.159 95.1336 399.235 94.3574 400.031C94.7045 399.486 95.0537 398.919 95.3968 398.404C96.6819 396.469 97.9783 394.775 99.1385 393.285C99.8051 392.443 100.424 391.695 101.011 391C102.09 390.982 106.438 390.85 108.338 389.958C110.193 389.087 112.314 387.463 112.763 385.34C113.202 383.262 111.923 381.1 109.723 380.864C106.668 380.534 103.038 384.721 101.922 387.227C101.825 387.444 100.706 391.004 100.763 391.003C100.763 391.003 100.815 391.003 100.828 391.002C100.249 391.659 99.6382 392.37 98.9838 393.159C97.7888 394.627 96.4515 396.297 95.1203 398.211C93.784 400.122 92.3852 402.235 91.1134 404.594C89.8354 406.956 88.6117 409.507 87.6912 412.299C87.6809 412.33 87.6737 412.364 87.6635 412.396C87.6799 411.496 87.6399 408.978 87.6143 408.785C87.2611 406.064 84.9817 401.014 81.9598 400.456C79.7838 400.054 77.9396 401.759 77.7665 403.876C77.5894 406.038 79.1571 408.202 80.6849 409.567C82.4083 411.107 87.1925 412.597 87.5734 412.714C86.7204 415.38 86.062 418.186 85.552 421.06C85.2592 422.703 85.0144 424.368 84.7912 426.041C84.7799 425.262 84.7646 424.566 84.7512 424.469C84.399 421.748 82.1185 416.699 79.0967 416.14C76.9197 415.737 75.0765 417.442 74.9034 419.559C74.7263 421.72 76.294 423.884 77.8218 425.249C79.3722 426.635 83.4262 427.987 84.5024 428.331C84.4236 428.973 84.3376 429.614 84.2608 430.258C83.8921 433.341 83.5378 436.419 83.0975 439.428C82.9429 440.489 82.7514 441.528 82.564 442.567C82.5527 441.876 82.5384 441.293 82.5271 441.205C82.1738 438.483 79.8944 433.434 76.8736 432.876C74.6966 432.474 72.8524 434.178 72.6793 436.296C72.5022 438.457 74.0699 440.621 75.5987 441.986C77.0784 443.308 80.8088 444.591 82.0868 445.005C81.8625 446.064 81.6403 447.126 81.3751 448.142C81.1785 448.831 81.0372 449.509 80.8017 450.191C80.5815 450.87 80.3644 451.544 80.1494 452.21C79.6876 453.479 79.2196 454.791 78.7383 456.016C78.4096 456.872 78.0809 457.681 77.7532 458.496C77.9191 457.443 78.2007 455.373 78.2048 455.197C78.2468 453.375 77.5996 450.412 76.3114 448.329C76.3196 448.06 76.3043 447.791 76.2613 447.525C75.9244 445.428 73.9542 443.871 71.8151 444.441C68.8465 445.231 66.9633 450.443 66.8231 453.183C66.8149 453.345 66.9203 455.108 67.0053 456.22C66.8558 455.574 66.7186 454.945 66.5558 454.283C66.2445 452.97 65.8943 451.668 65.5246 450.266C65.3219 449.596 65.1171 448.919 64.9102 448.235C64.7198 447.553 64.431 446.856 64.1924 446.158C63.6046 444.553 62.9319 442.954 62.2181 441.359C63.3681 441.083 67.4344 440.047 69.0677 438.794C70.6938 437.546 72.4172 435.504 72.4018 433.337C72.3865 431.213 70.6764 429.375 68.4748 429.613C65.4202 429.945 62.769 434.811 62.2151 437.498C62.1802 437.666 62 439.638 61.9212 440.724C61.4849 439.768 61.0538 438.812 60.5808 437.86C59.2158 435.11 57.7494 432.37 56.2963 429.63C55.8509 428.79 55.4177 427.949 54.9805 427.109C55.3911 427.014 60.251 425.887 62.0809 424.483C63.706 423.236 65.4304 421.195 65.4151 419.026C65.3997 416.902 63.6886 415.064 61.488 415.304C58.4334 415.636 55.7823 420.502 55.2283 423.189C55.1863 423.392 54.9303 426.23 54.9006 426.955C53.9391 425.104 52.997 423.249 52.143 421.383C50.9613 418.809 49.9445 416.221 49.1437 413.638C49.3352 413.595 54.4132 412.44 56.2871 411.003C57.9132 409.756 59.6376 407.715 59.6213 405.546C59.6059 403.423 57.8948 401.584 55.6942 401.824C52.6396 402.156 49.9895 407.022 49.4345 409.709C49.3905 409.92 49.1171 412.974 49.1068 413.531C49.0597 413.378 48.9932 413.224 48.9481 413.071C48.1299 410.303 47.6835 407.52 47.3937 404.893C47.2216 403.367 47.1438 401.9 47.0998 400.469C48.0675 400.351 52.485 399.763 54.3139 398.656C56.067 397.594 58.0054 395.755 58.2276 393.598C58.4457 391.486 56.9466 389.471 54.7337 389.466C51.6607 389.46 48.4924 394.006 47.6456 396.616C47.5995 396.758 47.2913 398.252 47.0824 399.344C47.0721 398.698 47.0496 398.032 47.0527 397.414C47.0568 395.09 47.2032 392.962 47.3496 391.08C47.4408 390.01 47.5452 389.045 47.6517 388.141C48.5406 387.53 52.0938 385.021 53.1864 383.228C54.2535 381.478 55.1259 378.954 54.3292 376.937C53.5489 374.961 51.29 373.864 49.3249 374.88C46.595 376.291 45.8771 381.785 46.3287 384.491C46.3687 384.724 47.3988 388.311 47.4459 388.281C47.4459 388.281 47.4889 388.251 47.4992 388.244C47.3783 389.11 47.2606 390.041 47.151 391.06C46.9636 392.943 46.7701 395.073 46.7158 397.406C46.6554 399.736 46.6544 402.271 46.895 404.939C47.1326 407.614 47.5186 410.416 48.2907 413.253C48.2989 413.285 48.3132 413.317 48.3214 413.349C47.8381 412.589 46.4158 410.512 46.2878 410.364C44.4927 408.29 39.8048 405.335 36.9765 406.537C34.9398 407.402 34.3418 409.841 35.3658 411.703C36.4113 413.604 38.9119 414.543 40.9394 414.839Z" fill="#263238"/>
<path d="M93.6266 400.405C93.6747 400.435 94.6076 396.821 94.6404 396.587C95.0182 393.869 94.1519 388.396 91.3861 387.059C89.3934 386.097 87.1652 387.255 86.4391 389.251C85.6978 391.288 86.6378 393.789 87.7519 395.509C89.0575 397.529 93.6225 400.402 93.6266 400.405Z" fill="#263238"/>
<path d="M184.52 434.098C185.538 434.542 188.027 434.486 188.029 434.486C188.055 434.485 187.494 432.856 187.446 432.757C186.901 431.614 185.173 429.728 183.767 429.918C182.754 430.055 182.192 431.067 182.421 432.021C182.654 432.996 183.653 433.72 184.52 434.098Z" fill="#263238"/>
<path d="M185.379 441.309C186.435 441.463 188.657 440.818 188.833 440.766C189.184 442.009 189.645 443.258 190.181 444.495C190.486 445.202 190.816 445.906 191.156 446.606C190.953 446.309 190.77 446.045 190.74 446.011C189.911 445.054 187.747 443.69 186.442 444.245C185.501 444.644 185.227 445.77 185.699 446.629C186.181 447.506 187.336 447.939 188.271 448.077C189.22 448.215 191.126 447.704 191.629 447.561C191.762 447.829 191.892 448.098 192.026 448.364C192.669 449.645 193.316 450.92 193.913 452.191C194.124 452.638 194.315 453.087 194.507 453.536C194.327 453.272 194.172 453.051 194.146 453.02C193.317 452.063 191.154 450.699 189.848 451.254C188.907 451.653 188.631 452.779 189.104 453.638C189.587 454.516 190.741 454.95 191.677 455.086C192.583 455.218 194.345 454.762 194.943 454.596C195.127 455.061 195.311 455.526 195.468 455.985C195.568 456.3 195.686 456.597 195.769 456.92C195.858 457.237 195.945 457.552 196.032 457.864C196.177 458.469 196.331 459.094 196.458 459.689C196.549 460.101 196.629 460.497 196.71 460.895C196.505 460.446 196.087 459.578 196.043 459.51C195.369 458.437 193.437 456.762 192.063 457.112C191.073 457.365 190.63 458.436 190.967 459.357C191.311 460.297 192.386 460.901 193.291 461.178C194.287 461.482 196.492 461.204 196.767 461.167C196.899 461.826 197.021 462.468 197.128 463.076C197.184 463.398 197.233 463.7 197.283 464.004H198.16C198.095 463.654 198.028 463.296 197.953 462.921C197.822 462.252 197.667 461.539 197.502 460.809C197.668 460.743 198.608 460.363 199.442 459.897C200.168 460.683 202.027 461.603 202.268 461.719C202.015 462.342 201.763 462.945 201.515 463.51C201.441 463.681 201.369 463.841 201.296 464.004H202.22C202.243 463.949 202.266 463.895 202.29 463.838C202.55 463.207 202.814 462.527 203.08 461.827C203.346 461.883 205.529 462.326 206.546 462.096C207.469 461.887 208.586 461.365 209 460.454C209.404 459.561 209.042 458.46 208.073 458.134C206.729 457.683 204.676 459.209 203.925 460.228C203.881 460.289 203.472 460.994 203.222 461.444C203.329 461.157 203.436 460.88 203.543 460.584C203.758 459.999 203.955 459.409 204.169 458.775C204.261 458.465 204.355 458.153 204.449 457.836C204.549 457.525 204.616 457.183 204.702 456.854C204.885 456.086 205.033 455.3 205.164 454.504C205.676 454.691 207.506 455.328 208.454 455.26C209.397 455.193 210.581 454.847 211.128 454.008C211.663 453.186 211.472 452.043 210.563 451.575C209.303 450.924 207.043 452.123 206.146 453.016C206.09 453.072 205.518 453.785 205.211 454.184C205.287 453.704 205.364 453.227 205.424 452.74C205.598 451.334 205.731 449.905 205.87 448.48C205.912 448.044 205.961 447.61 206.006 447.174C206.187 447.243 208.345 448.047 209.407 447.972C210.35 447.906 211.534 447.559 212.081 446.72C212.617 445.899 212.425 444.755 211.517 444.287C210.256 443.637 207.997 444.835 207.099 445.729C207.032 445.796 206.21 446.823 206.014 447.096C206.115 446.137 206.225 445.184 206.371 444.248C206.571 442.957 206.839 441.7 207.188 440.502C207.272 440.534 209.522 441.383 210.61 441.307C211.553 441.24 212.736 440.894 213.283 440.055C213.818 439.233 213.627 438.089 212.719 437.622C211.458 436.971 209.199 438.17 208.301 439.063C208.231 439.134 207.348 440.24 207.202 440.452C207.223 440.381 207.236 440.304 207.258 440.234C207.647 438.96 208.185 437.775 208.742 436.69C209.064 436.059 209.408 435.473 209.756 434.911C210.158 435.112 212.008 436.011 212.994 436.05C213.94 436.088 215.154 435.873 215.789 435.099C216.41 434.342 216.347 433.185 215.496 432.619C214.314 431.835 211.937 432.778 210.946 433.566C210.892 433.61 210.393 434.106 210.035 434.474C210.196 434.223 210.357 433.961 210.515 433.723C211.108 432.83 211.707 432.048 212.243 431.36C212.55 430.971 212.836 430.626 213.107 430.305C213.605 430.297 215.612 430.235 216.489 429.824C217.345 429.421 218.324 428.672 218.531 427.692C218.734 426.732 218.144 425.735 217.128 425.625C215.718 425.474 214.043 427.406 213.528 428.562C213.484 428.663 212.967 430.306 212.993 430.306C212.993 430.306 213.018 430.306 213.023 430.306C212.756 430.609 212.473 430.937 212.172 431.301C211.62 431.979 211.004 432.749 210.388 433.633C209.772 434.515 209.126 435.491 208.539 436.579C207.949 437.67 207.384 438.847 206.959 440.135C206.954 440.15 206.951 440.166 206.946 440.181C206.953 439.765 206.934 438.603 206.923 438.513C206.76 437.258 205.708 434.926 204.313 434.668C203.308 434.483 202.457 435.269 202.378 436.247C202.296 437.246 203.02 438.244 203.725 438.874C204.521 439.585 206.73 440.273 206.905 440.327C206.51 441.558 206.207 442.852 205.972 444.179C205.837 444.938 205.724 445.706 205.621 446.478C205.615 446.119 205.608 445.797 205.602 445.752C205.439 444.496 204.387 442.165 202.992 441.907C201.987 441.721 201.136 442.508 201.057 443.485C200.975 444.482 201.699 445.482 202.403 446.112C203.119 446.751 204.99 447.375 205.487 447.534C205.451 447.83 205.412 448.126 205.376 448.423C205.206 449.846 205.042 451.266 204.839 452.656C204.768 453.145 204.68 453.625 204.594 454.105C204.588 453.786 204.581 453.517 204.576 453.476C204.413 452.22 203.361 449.889 201.966 449.631C200.961 449.446 200.109 450.232 200.03 451.21C199.948 452.207 200.672 453.207 201.377 453.837C202.06 454.447 203.781 455.039 204.372 455.23C204.269 455.72 204.167 456.209 204.044 456.678C203.952 456.997 203.888 457.309 203.778 457.624C203.677 457.938 203.577 458.249 203.477 458.556C203.264 459.142 203.048 459.747 202.826 460.313C202.675 460.709 202.523 461.081 202.371 461.458C202.448 460.972 202.578 460.016 202.58 459.936C202.6 459.095 202.301 457.727 201.706 456.765C201.71 456.641 201.703 456.517 201.682 456.395C201.527 455.427 200.617 454.708 199.63 454.971C198.26 455.336 197.391 457.742 197.326 459.006C197.322 459.08 197.371 459.895 197.41 460.408C197.341 460.11 197.278 459.819 197.203 459.514C197.06 458.907 196.898 458.307 196.727 457.66C196.634 457.351 196.539 457.039 196.444 456.722C196.355 456.408 196.222 456.085 196.113 455.764C195.841 455.022 195.531 454.285 195.201 453.549C195.732 453.422 197.609 452.944 198.362 452.365C199.113 451.79 199.909 450.848 199.902 449.846C199.894 448.865 199.105 448.017 198.089 448.128C196.679 448.281 195.455 450.527 195.199 451.767C195.184 451.845 195.1 452.755 195.063 453.256C194.861 452.815 194.663 452.373 194.445 451.934C193.815 450.664 193.137 449.4 192.467 448.135C192.261 447.748 192.062 447.36 191.86 446.972C192.05 446.929 194.293 446.407 195.138 445.76C195.888 445.185 196.684 444.243 196.677 443.241C196.67 442.261 195.88 441.412 194.864 441.523C193.454 441.676 192.231 443.922 191.975 445.162C191.955 445.255 191.838 446.566 191.823 446.901C191.379 446.046 190.945 445.19 190.55 444.329C190.005 443.141 189.536 441.946 189.166 440.754C189.254 440.733 191.598 440.201 192.463 439.537C193.214 438.962 194.009 438.02 194.002 437.018C193.995 436.038 193.206 435.19 192.19 435.3C190.78 435.454 189.556 437.699 189.3 438.939C189.28 439.037 189.154 440.447 189.149 440.704C189.127 440.633 189.096 440.562 189.075 440.491C188.697 439.213 188.491 437.929 188.357 436.716C188.278 436.012 188.241 435.335 188.221 434.674C188.667 434.62 190.707 434.349 191.551 433.837C192.36 433.347 193.255 432.498 193.357 431.502C193.458 430.527 192.766 429.596 191.744 429.595C190.326 429.592 188.863 431.691 188.473 432.896C188.451 432.961 188.309 433.651 188.213 434.155C188.207 433.857 188.197 433.55 188.199 433.264C188.201 432.192 188.269 431.21 188.336 430.341C188.378 429.846 188.427 429.401 188.476 428.984C188.886 428.701 190.526 427.544 191.031 426.717C191.523 425.909 191.926 424.744 191.558 423.813C191.198 422.901 190.155 422.395 189.248 422.864C187.988 423.515 187.657 426.051 187.864 427.301C187.883 427.408 188.358 429.064 188.381 429.05C188.381 429.05 188.401 429.036 188.405 429.032C188.35 429.432 188.295 429.862 188.244 430.332C188.158 431.201 188.068 432.184 188.044 433.261C188.016 434.338 188.015 435.507 188.127 436.739C188.236 437.974 188.414 439.267 188.771 440.576C188.775 440.59 188.781 440.605 188.785 440.62C188.562 440.27 187.905 439.31 187.846 439.243C187.018 438.285 184.854 436.921 183.548 437.476C182.608 437.875 182.332 439.002 182.805 439.861C183.289 440.739 184.443 441.173 185.379 441.309Z" fill="#263238"/>
<path d="M209.699 434.647C209.72 434.66 210.151 432.992 210.167 432.884C210.341 431.63 209.941 429.104 208.664 428.487C207.745 428.043 206.716 428.577 206.381 429.499C206.039 430.44 206.472 431.594 206.987 432.388C207.589 433.319 209.696 434.646 209.699 434.647Z" fill="#263238"/>
<path d="M229.7 59.6738C223.501 63.2978 221.162 70.3163 220.04 73.6811C218.489 78.3332 213.061 70.5794 202.207 74.4563C191.352 78.3332 189.801 86.8621 187.476 89.1876C185.15 91.5131 169.643 97.7165 169.643 97.7165H325.243" stroke="#263238" stroke-miterlimit="10" stroke-linecap="round" stroke-linejoin="round"/>
<path d="M332.997 97.7166H351.849C351.849 97.7166 354.95 80.6589 347.972 72.13C340.993 63.6011 325.487 76.0068 320.835 63.6011C320.835 63.6011 306.879 43.4426 289.821 41.8912C272.763 40.3409 265.786 53.5218 260.357 60.4994C254.93 67.4779 251.828 57.3977 238.647 57.3977" stroke="#263238" stroke-miterlimit="10" stroke-linecap="round" stroke-linejoin="round"/>
<path d="M258.529 83.8691C255.367 86.8131 254.931 90.7381 254.931 90.7381" stroke="#263238" stroke-miterlimit="10" stroke-linecap="round" stroke-linejoin="round"/>
<path d="M317.734 70.5798C317.734 70.5798 306.879 59.7254 294.474 60.5006C282.068 61.2757 286.72 76.007 281.293 80.659C275.865 85.3111 269.663 79.1087 262.685 81.4342" stroke="#263238" stroke-miterlimit="10" stroke-linecap="round" stroke-linejoin="round"/>
<path d="M74.1751 108.098C70.1252 110.465 68.5974 115.051 67.8642 117.249C66.8515 120.288 63.3054 115.223 56.2131 117.756C49.1209 120.288 48.1082 125.861 46.5886 127.381C45.069 128.9 34.9375 132.953 34.9375 132.953H136.596" stroke="#263238" stroke-miterlimit="10" stroke-linecap="round" stroke-linejoin="round"/>
<path d="M141.662 132.952H153.979C153.979 132.952 156.005 121.808 151.446 116.235C146.888 110.663 136.756 118.768 133.717 110.664C133.717 110.664 124.599 97.4932 113.455 96.4805C102.311 95.4677 97.752 104.079 94.2059 108.637C90.6598 113.196 88.6343 106.611 80.0225 106.611" stroke="#263238" stroke-miterlimit="10" stroke-linecap="round" stroke-linejoin="round"/>
<path d="M93.0093 123.906C90.9439 125.829 90.6582 128.394 90.6582 128.394" stroke="#263238" stroke-miterlimit="10" stroke-linecap="round" stroke-linejoin="round"/>
<path d="M131.691 115.225C131.691 115.225 124.598 108.132 116.494 108.639C108.389 109.146 111.429 118.771 107.883 121.81C104.336 124.849 100.284 120.797 95.7256 122.317" stroke="#263238" stroke-miterlimit="10" stroke-linecap="round" stroke-linejoin="round"/>
<path d="M281.17 148.908C278.346 150.559 277.28 153.757 276.769 155.29C276.062 157.409 273.589 153.877 268.644 155.643C263.699 157.409 262.993 161.295 261.933 162.354C260.873 163.414 253.809 166.24 253.809 166.24H324.7" stroke="#263238" stroke-miterlimit="10" stroke-linecap="round" stroke-linejoin="round"/>
<path d="M328.231 166.241H336.819C336.819 166.241 338.232 158.47 335.052 154.584C331.873 150.698 324.808 156.351 322.689 150.698C322.689 150.698 316.331 141.514 308.56 140.807C300.788 140.101 297.609 146.105 295.136 149.285C292.663 152.464 291.25 147.872 285.245 147.872" stroke="#263238" stroke-miterlimit="10" stroke-linecap="round" stroke-linejoin="round"/>
<path d="M294.304 159.932C292.863 161.273 292.664 163.061 292.664 163.061" stroke="#263238" stroke-miterlimit="10" stroke-linecap="round" stroke-linejoin="round"/>
<path d="M321.277 153.878C321.277 153.878 316.332 148.933 310.68 149.286C305.027 149.639 307.147 156.35 304.675 158.47C302.202 160.589 299.377 157.763 296.197 158.823" stroke="#263238" stroke-miterlimit="10" stroke-linecap="round" stroke-linejoin="round"/>
<path d="M106.081 371.611V328.905H54.1455V303.581L99.4278 197.779H133.98V305.298H151.792V328.905H133.98V371.611H106.081ZM79.04 305.298H106.081V229.757L79.04 305.298Z" fill="#263238" stroke="#263238" stroke-miterlimit="10" stroke-linecap="round" stroke-linejoin="round"/>
<path d="M212.739 374.188C202.579 374.188 194.176 372.041 187.523 367.75C180.87 363.457 175.861 357.522 172.501 349.937C169.137 342.356 167.458 333.627 167.458 323.756V246.711C167.458 236.554 169.068 227.647 172.286 219.993C175.506 212.34 180.441 206.365 187.094 202.073C193.747 197.78 202.294 195.635 212.739 195.635C223.181 195.635 231.732 197.78 238.384 202.073C245.037 206.365 249.974 212.34 253.192 219.993C256.412 227.647 258.022 236.554 258.022 246.711V323.755C258.022 333.626 256.338 342.356 252.978 349.936C249.615 357.522 244.609 363.456 237.955 367.749C231.303 372.041 222.897 374.188 212.739 374.188ZM212.739 348.65C217.172 348.65 220.465 347.291 222.612 344.572C224.757 341.856 226.185 338.563 226.903 334.7C227.618 330.838 227.976 327.048 227.976 323.326V247.14C227.976 243.136 227.655 239.166 227.011 235.23C226.367 231.297 224.972 227.97 222.826 225.25C220.679 222.534 217.317 221.172 212.739 221.172C208.159 221.172 204.799 222.534 202.653 225.25C200.508 227.97 199.112 231.297 198.468 235.23C197.824 239.166 197.502 243.136 197.502 247.14V323.326C197.502 327.048 197.894 330.838 198.683 334.7C199.468 338.563 200.937 341.856 203.082 344.572C205.228 347.29 208.448 348.65 212.739 348.65Z" fill="#263238" stroke="#263238" stroke-miterlimit="10" stroke-linecap="round" stroke-linejoin="round"/>
<path d="M328.842 371.611V328.905H276.907V303.581L322.19 197.779H356.74V305.298H374.553V328.905H356.74V371.611H328.842ZM301.801 305.298H328.842V229.757L301.801 305.298Z" fill="#263238" stroke="#263238" stroke-miterlimit="10" stroke-linecap="round" stroke-linejoin="round"/>
<path d="M119.021 371.611V328.905H67.0859V303.581L112.368 197.779H146.92V305.298H164.733V328.905H146.92V371.611H119.021ZM91.9804 305.298H119.021V229.757L91.9804 305.298Z" fill="white" stroke="#263238" stroke-miterlimit="10" stroke-linecap="round" stroke-linejoin="round"/>
<path d="M225.68 374.188C215.52 374.188 207.117 372.041 200.464 367.75C193.811 363.457 188.801 357.522 185.442 349.937C182.078 342.356 180.398 333.627 180.398 323.756V246.711C180.398 236.554 182.008 227.647 185.228 219.993C188.447 212.34 193.383 206.365 200.036 202.073C206.689 197.78 215.236 195.635 225.681 195.635C236.124 195.635 244.674 197.78 251.327 202.073C257.98 206.365 262.916 212.34 266.135 219.993C269.354 227.647 270.964 236.554 270.964 246.711V323.755C270.964 333.626 269.281 342.356 265.921 349.936C262.558 357.522 257.552 363.456 250.898 367.749C244.244 372.041 235.837 374.188 225.68 374.188ZM225.68 348.65C230.113 348.65 233.406 347.291 235.552 344.572C237.698 341.856 239.126 338.563 239.844 334.7C240.558 330.838 240.917 327.048 240.917 323.326V247.14C240.917 243.136 240.595 239.166 239.951 235.23C239.307 231.297 237.912 227.97 235.766 225.25C233.62 222.534 230.257 221.172 225.68 221.172C221.099 221.172 217.74 222.534 215.593 225.25C213.447 227.97 212.052 231.297 211.408 235.23C210.764 239.166 210.443 243.136 210.443 247.14V323.326C210.443 327.048 210.835 330.838 211.623 334.7C212.408 338.563 213.877 341.856 216.022 344.572C218.169 347.29 221.388 348.65 225.68 348.65Z" fill="white" stroke="#263238" stroke-miterlimit="10" stroke-linecap="round" stroke-linejoin="round"/>
<path d="M341.782 371.611V328.905H289.847V303.581L335.129 197.779H369.68V305.298H387.492V328.905H369.68V371.611H341.782ZM314.74 305.298H341.782V229.757L314.74 305.298Z" fill="white" stroke="#263238" stroke-miterlimit="10" stroke-linecap="round" stroke-linejoin="round"/>
<path d="M111.125 189.38C108.713 189.38 106.793 188.931 105.363 188.034C103.933 187.137 102.909 185.847 102.293 184.166C101.676 182.483 101.368 180.492 101.368 178.194V165.451C101.368 163.152 101.676 161.182 102.293 159.542C102.909 157.902 103.933 156.648 105.363 155.778C106.793 154.91 108.712 154.475 111.125 154.475C113.592 154.475 115.533 154.91 116.949 155.778C118.365 156.648 119.389 157.902 120.019 159.542C120.65 161.183 120.965 163.153 120.965 165.451V178.237C120.965 180.508 120.65 182.478 120.019 184.145C119.389 185.814 118.365 187.103 116.949 188.015C115.533 188.924 113.592 189.38 111.125 189.38ZM111.125 184.795C112.162 184.795 112.926 184.571 113.418 184.122C113.908 183.674 114.238 183.058 114.406 182.272C114.574 181.488 114.658 180.632 114.658 179.707V164.019C114.658 163.067 114.574 162.211 114.406 161.454C114.238 160.697 113.908 160.103 113.418 159.667C112.927 159.233 112.162 159.015 111.125 159.015C110.143 159.015 109.4 159.232 108.896 159.667C108.391 160.103 108.055 160.697 107.886 161.454C107.717 162.211 107.634 163.067 107.634 164.019V179.707C107.634 180.633 107.711 181.488 107.865 182.272C108.019 183.058 108.349 183.674 108.854 184.122C109.358 184.571 110.115 184.795 111.125 184.795Z" fill="#263238"/>
<path d="M134.802 189.38C132.39 189.38 130.47 188.931 129.04 188.034C127.61 187.137 126.586 185.847 125.97 184.166C125.353 182.483 125.045 180.492 125.045 178.194V165.451C125.045 163.152 125.353 161.182 125.97 159.542C126.586 157.902 127.61 156.648 129.04 155.778C130.469 154.91 132.389 154.475 134.802 154.475C137.268 154.475 139.21 154.91 140.627 155.778C142.042 156.648 143.066 157.902 143.697 159.542C144.328 161.183 144.643 163.153 144.643 165.451V178.237C144.643 180.508 144.328 182.478 143.697 184.145C143.066 185.814 142.042 187.103 140.627 188.015C139.21 188.924 137.268 189.38 134.802 189.38ZM134.802 184.795C135.839 184.795 136.603 184.571 137.094 184.122C137.585 183.674 137.915 183.058 138.082 182.272C138.25 181.488 138.334 180.632 138.334 179.707V164.019C138.334 163.067 138.25 162.211 138.082 161.454C137.915 160.697 137.585 160.103 137.094 159.667C136.603 159.233 135.839 159.015 134.802 159.015C133.82 159.015 133.077 159.232 132.572 159.667C132.068 160.103 131.732 160.697 131.563 161.454C131.395 162.211 131.31 163.067 131.31 164.019V179.707C131.31 180.633 131.387 181.488 131.541 182.272C131.695 183.058 132.025 183.674 132.529 184.122C133.035 184.571 133.792 184.795 134.802 184.795Z" fill="#263238"/>
<path d="M149.227 188.917V154.852H159.236C161.283 154.852 162.944 155.23 164.22 155.987C165.496 156.744 166.435 157.845 167.038 159.289C167.641 160.733 167.942 162.478 167.942 164.524C167.942 166.739 167.563 168.527 166.807 169.886C166.05 171.247 164.991 172.234 163.631 172.85C162.271 173.468 160.667 173.776 158.816 173.776H155.451V188.916H149.227V188.917ZM155.45 169.404H157.806C158.927 169.404 159.803 169.243 160.434 168.92C161.065 168.599 161.499 168.08 161.738 167.364C161.975 166.649 162.095 165.689 162.095 164.483C162.095 163.25 162.004 162.248 161.822 161.477C161.639 160.706 161.247 160.138 160.644 159.774C160.041 159.409 159.095 159.227 157.806 159.227H155.45V169.404Z" fill="#263238"/>
<path d="M179.802 189.38C177.755 189.38 176.044 188.98 174.67 188.181C173.296 187.382 172.259 186.211 171.558 184.669C170.857 183.127 170.465 181.235 170.381 178.992L175.722 177.941C175.778 179.258 175.939 180.422 176.205 181.431C176.472 182.441 176.878 183.219 177.425 183.765C177.972 184.312 178.693 184.585 179.591 184.585C180.6 184.585 181.315 184.284 181.736 183.681C182.157 183.078 182.367 182.314 182.367 181.389C182.367 179.904 182.031 178.684 181.357 177.731C180.684 176.777 179.787 175.824 178.666 174.871L174.377 171.086C173.17 170.05 172.211 168.893 171.495 167.617C170.78 166.341 170.423 164.764 170.423 162.886C170.423 160.194 171.207 158.12 172.778 156.662C174.348 155.205 176.493 154.475 179.213 154.475C180.811 154.475 182.143 154.72 183.209 155.211C184.273 155.702 185.122 156.382 185.753 157.251C186.384 158.12 186.853 159.108 187.162 160.215C187.47 161.323 187.667 162.494 187.751 163.726L182.452 164.652C182.395 163.587 182.277 162.634 182.094 161.792C181.912 160.95 181.59 160.293 181.127 159.815C180.664 159.339 179.984 159.1 179.087 159.1C178.162 159.1 177.454 159.402 176.963 160.004C176.473 160.607 176.227 161.358 176.227 162.254C176.227 163.404 176.464 164.35 176.942 165.092C177.418 165.836 178.105 166.6 179.002 167.385L183.249 171.128C184.651 172.306 185.85 173.687 186.846 175.271C187.841 176.855 188.339 178.769 188.339 181.012C188.339 182.638 187.981 184.082 187.267 185.343C186.552 186.605 185.557 187.593 184.281 188.309C183.005 189.022 181.512 189.38 179.802 189.38Z" fill="#263238"/>
<path d="M191.114 188.916V183.365H196.665V188.916H191.114ZM192.881 180.926L191.156 154.893H196.875L194.857 180.926H192.881Z" fill="#263238"/>
<path d="M344.258 392.705V400.026H348.072V395.732C348.072 393.849 349.599 392.322 351.482 392.322H363.999C365.883 392.322 367.409 393.849 367.409 395.732V400.026H371.224V392.705C371.224 390.822 369.697 389.295 367.814 389.295H347.668C345.785 389.295 344.258 390.822 344.258 392.705Z" fill="#263238" stroke="#263238" stroke-miterlimit="10" stroke-linecap="round" stroke-linejoin="round"/>
<path d="M384.468 398.031H312.236C309.576 398.031 307.421 400.187 307.421 402.846V460.903C307.421 462.615 308.808 464.002 310.521 464.002H386.184C387.896 464.002 389.284 462.615 389.284 460.903V402.846C389.283 400.188 387.127 398.031 384.468 398.031Z" fill="#263238" stroke="#263238" stroke-miterlimit="10" stroke-linecap="round" stroke-linejoin="round"/>
<path d="M394.478 398.031H322.246C319.587 398.031 317.432 400.187 317.432 402.846V460.903C317.432 462.615 318.819 464.002 320.531 464.002H396.195C397.907 464.002 399.294 462.615 399.294 460.903V402.846C399.293 400.188 397.138 398.031 394.478 398.031Z" fill="#8A8A8A" stroke="#263238" stroke-miterlimit="10" stroke-linecap="round" stroke-linejoin="round"/>
<path d="M419.841 268.452C419.841 268.452 399.253 330.298 397.473 341.494C395.695 352.689 396.839 366.59 397.909 373.623C398.979 380.654 409.941 441.391 409.941 441.391C409.941 441.391 407.227 440.475 407.028 442.438C406.83 444.401 407.514 452.707 407.514 452.707C407.514 452.707 404.67 456.69 397.184 461.026C389.697 465.363 386.057 466.671 388.292 468.088C390.529 469.504 400.087 470.014 403.989 469.433C407.892 468.853 418.389 467.627 420.095 467.342C421.802 467.057 426.968 468.16 428.611 465.185C430.255 462.209 429.065 453.18 429.48 449.988C429.894 446.797 427.572 441.711 427.555 440.977C427.538 440.243 425.487 371.596 425.487 371.596L426.784 354.548C426.784 354.548 426.402 370.784 428.27 372.594C430.138 374.405 449.612 442.173 449.612 442.173L447.724 445.155L450.08 451.709L448.221 455.913C448.221 455.913 439.358 464.198 435.735 466.241C432.111 468.284 428.453 468.86 430.45 470.526C432.447 472.193 452.007 471.245 452.007 471.245L472.47 467.093C472.47 467.093 475.57 463.594 475.012 460.67C474.454 457.745 471.761 447.284 471.761 447.284C471.761 447.284 472.418 433.561 471.672 433.089C470.927 432.617 467.137 427.566 466.846 425.614C466.556 423.662 464.428 385.331 462.179 378.886C459.929 372.442 457.136 362.36 457.136 362.36C457.136 362.36 458.722 360.756 458.825 359.029C458.929 357.301 458.424 354.151 458.424 354.151C458.424 354.151 479.791 298.548 480.77 295.366C481.749 292.185 486.153 275.056 486.153 268.205C486.153 261.353 485.663 256.215 485.663 256.215C485.663 256.215 469.023 263.801 452.14 264.535C435.255 265.269 420.328 264.29 420.328 264.29L419.841 268.452Z" fill="#263238" stroke="#263238" stroke-miterlimit="10" stroke-linecap="round" stroke-linejoin="round"/>
<path d="M470.983 270.654C470.983 270.654 470.983 287.294 479.303 290.475" stroke="white" stroke-miterlimit="10" stroke-linecap="round" stroke-linejoin="round"/>
<path d="M482.974 265.76C482.974 265.76 483.463 277.016 481.261 287.049" stroke="white" stroke-miterlimit="10" stroke-linecap="round" stroke-linejoin="round"/>
<path d="M467.017 316.762C464.737 321.614 462.991 325.382 462.908 325.71" stroke="white" stroke-miterlimit="10" stroke-linecap="round" stroke-linejoin="round"/>
<path d="M478.079 293.41C478.079 293.41 472.741 304.611 468.397 313.826" stroke="white" stroke-miterlimit="10" stroke-linecap="round" stroke-linejoin="round"/>
<path d="M428.916 339.244L437.949 300.508L428.405 292.188" stroke="white" stroke-miterlimit="10" stroke-linecap="round" stroke-linejoin="round"/>
<path d="M426.954 347.659L427.892 343.637" stroke="white" stroke-miterlimit="10" stroke-linecap="round" stroke-linejoin="round"/>
<path d="M379.978 179.812L355.472 190.483C355.472 190.483 370.096 160.049 370.689 158.271C371.282 156.492 362.586 141.473 362.784 140.88C362.981 140.287 370.491 131.197 370.689 129.221C370.886 127.245 375.037 120.327 371.875 119.933C368.712 119.538 351.915 135.15 351.52 139.102C351.124 143.055 359.03 156.493 359.82 157.679C360.611 158.865 319.11 203.329 318.319 210.443C317.529 217.558 320.889 222.103 326.818 222.893C332.747 223.684 379.385 207.677 386.499 205.7C393.614 203.724 395.985 206.886 395.985 206.886C395.985 206.886 418.316 233.96 419.897 237.319C421.478 240.679 420.688 253.129 418.909 256.884C417.13 260.639 415.154 267.16 416.142 268.148C417.13 269.136 417.856 270.354 420.82 271.144C423.784 271.935 444.401 274.472 456.062 272.693C467.721 270.915 481.555 264.788 484.716 262.418C487.878 260.046 488.274 257.279 488.274 253.722C488.274 250.164 485.902 247.002 484.321 243.445C482.74 239.888 472.267 207.28 467.919 196.806C463.571 186.332 464.954 178.427 448.552 169.139C432.149 159.852 412.91 161.799 412.91 161.799L379.978 179.812Z" fill="#3E007C" stroke="#263238" stroke-miterlimit="10" stroke-linecap="round" stroke-linejoin="round"/>
<path d="M354.49 205.387L354.286 208.466" stroke="#263238" stroke-miterlimit="10" stroke-linecap="round" stroke-linejoin="round"/>
<path d="M349.148 210.245L355.472 190.482L354.642 203.062" stroke="#263238" stroke-miterlimit="10" stroke-linecap="round" stroke-linejoin="round"/>
<path d="M348.556 172.895C348.556 172.895 349.544 180.405 359.227 180.8" stroke="#263238" stroke-miterlimit="10" stroke-linecap="round" stroke-linejoin="round"/>
<path d="M393.81 205.107C393.81 205.107 386.695 200.364 379.384 197.992L393.81 205.107Z" fill="white"/>
<path d="M393.81 205.107C393.81 205.107 386.695 200.364 379.384 197.992" stroke="#263238" stroke-miterlimit="10" stroke-linecap="round" stroke-linejoin="round"/>
<path d="M377.228 200.539C376.438 200.406 375.64 200.28 374.839 200.166" stroke="#263238" stroke-miterlimit="10" stroke-linecap="round" stroke-linejoin="round"/>
<path d="M391.241 203.723C391.241 203.723 386.204 202.248 380.004 201.043" stroke="#263238" stroke-miterlimit="10" stroke-linecap="round" stroke-linejoin="round"/>
<path d="M427.471 244.09C428.166 244.662 428.661 245.027 428.79 245.027" stroke="#263238" stroke-miterlimit="10" stroke-linecap="round" stroke-linejoin="round"/>
<path d="M419.896 237.32C419.896 237.32 423.382 240.557 425.996 242.835" stroke="#263238" stroke-miterlimit="10" stroke-linecap="round" stroke-linejoin="round"/>
<path d="M462.582 271.507L480.17 260.439" stroke="#263238" stroke-miterlimit="10" stroke-linecap="round" stroke-linejoin="round"/>
<path d="M472.601 228.363C470.617 236.397 466.77 250.081 462.188 256.686" stroke="#263238" stroke-miterlimit="10" stroke-linecap="round" stroke-linejoin="round"/>
<path d="M474.045 222.102C474.045 222.102 473.795 223.314 473.333 225.307" stroke="#263238" stroke-miterlimit="10" stroke-linecap="round" stroke-linejoin="round"/>
<path d="M474.045 232.576C474.045 232.576 470.29 248.979 467.325 253.524" stroke="#263238" stroke-miterlimit="10" stroke-linecap="round" stroke-linejoin="round"/>
<path d="M365.768 168.918C368.355 163.455 370.471 158.925 370.688 158.271C371.281 156.492 362.586 141.473 362.783 140.88C362.981 140.287 370.491 131.197 370.688 129.221C370.886 127.245 375.036 120.327 371.874 119.933C368.712 119.538 351.914 135.15 351.519 139.102C351.124 143.055 359.029 156.493 359.82 157.679C359.987 157.93 358.261 160.117 355.435 163.472C356.535 166.153 359.223 169.554 365.768 168.918Z" fill="white" stroke="#263238" stroke-miterlimit="10" stroke-linecap="round" stroke-linejoin="round"/>
<path d="M362.327 130.291C362.327 130.291 357.373 139.888 357.556 140.617" stroke="#263238" stroke-miterlimit="10" stroke-linecap="round" stroke-linejoin="round"/>
<path d="M358.649 130.412C358.649 130.412 352.998 138.432 353.363 139.708" stroke="#263238" stroke-miterlimit="10" stroke-linecap="round" stroke-linejoin="round"/>
<path d="M401.123 202.143L409.027 218.151L412.782 218.349L415.944 200.364L413.375 196.215L411.597 207.479L406.853 207.281L401.321 198.982L401.123 202.143Z" fill="#8A8A8A" stroke="#263238" stroke-miterlimit="10" stroke-linecap="round" stroke-linejoin="round"/>
<path d="M409.027 218.15L402.477 265.857L410.052 281.792L418.168 265.234L412.782 218.348L409.027 218.15Z" fill="#8A8A8A" stroke="#263238" stroke-miterlimit="10" stroke-linecap="round" stroke-linejoin="round"/>
<path d="M407.853 215.771L413.914 211.913L415.792 201.234L412.224 203.506L411.596 207.48L406.853 207.282L406.686 207.031L404.289 208.557L407.853 215.771Z" fill="#263238"/>
<path d="M412.783 218.35L412.793 218.295L412.714 218.346L412.783 218.35Z" fill="#263238"/>
<path d="M414.399 232.422L406.366 237.536L404.938 247.926L415.414 241.258L414.399 232.422Z" fill="#263238"/>
<path d="M413.792 227.14L412.782 218.348L412.714 218.344L408.645 220.933L407.219 231.325L413.792 227.14Z" fill="#263238"/>
<path d="M416.021 246.541L404.086 254.14L402.659 264.531L417.036 255.378L416.021 246.541Z" fill="#263238"/>
<path d="M414.91 271.883L418.169 265.234L417.644 260.66L404.104 269.279L407.566 276.56L414.91 271.883Z" fill="#263238"/>
<path d="M395.589 183.764C395.589 183.764 394.008 193.447 394.206 197.795C394.403 202.143 396.577 209.85 396.577 209.85L406.261 198.783L422.466 208.861C422.466 208.861 421.873 188.309 421.873 187.716C421.873 187.123 418.118 164.989 416.932 162.815C415.746 160.641 412.584 159.455 410.806 159.851C409.027 160.248 395.589 183.764 395.589 183.764Z" fill="#3E007C" stroke="#263238" stroke-miterlimit="10" stroke-linecap="round" stroke-linejoin="round"/>
<path d="M368.287 129.781C368.287 129.781 367.776 144.258 368.117 150.049C368.458 155.84 367.606 160.439 369.139 165.208C370.672 169.976 372.375 179.174 373.908 182.239C375.441 185.305 378.677 188.199 383.446 188.199C388.214 188.199 393.494 184.283 396.049 181.728C398.604 179.173 403.032 175.596 405.417 170.998C407.801 166.4 405.757 154.818 406.097 151.582C406.438 148.346 407.119 142.726 407.119 142.726C407.119 142.726 410.525 134.38 407.8 130.463C405.076 126.545 392.983 122.118 383.786 122.97C374.589 123.821 368.287 129.781 368.287 129.781Z" fill="white" stroke="#263238" stroke-miterlimit="10" stroke-linecap="round" stroke-linejoin="round"/>
<path d="M376.292 146.131L377.655 151.241C377.655 151.241 373.567 163.163 374.589 163.844C375.611 164.525 383.956 163.674 383.956 163.674" stroke="#263238" stroke-miterlimit="10" stroke-linecap="round" stroke-linejoin="round"/>
<path d="M382.935 140.852C382.935 140.852 382.765 142.726 383.446 143.066C384.127 143.407 390.77 145.961 391.791 145.621C392.813 145.28 391.45 143.918 390.6 143.577C389.748 143.237 382.594 139.319 382.935 140.852Z" fill="#263238" stroke="#263238" stroke-miterlimit="10" stroke-linecap="round" stroke-linejoin="round"/>
<path d="M376.291 143.576C376.291 143.576 370.842 146.642 369.82 146.812C368.798 146.982 370.501 144.768 370.501 144.768C370.501 144.768 374.589 140.169 375.61 140.85C376.632 141.533 376.291 143.576 376.291 143.576Z" fill="#263238" stroke="#263238" stroke-miterlimit="10" stroke-linecap="round" stroke-linejoin="round"/>
<path d="M384.979 150.389C384.979 150.389 387.874 153.455 391.791 151.07" stroke="#263238" stroke-miterlimit="10" stroke-linecap="round" stroke-linejoin="round"/>
<path d="M370.842 151.752C370.842 151.752 373.567 153.455 376.292 150.73" stroke="#263238" stroke-miterlimit="10" stroke-linecap="round" stroke-linejoin="round"/>
<path d="M406.098 151.581C406.407 148.647 406.994 143.767 407.101 142.879L403.714 141.021C403.714 141.021 404.736 153.625 403.373 160.608C402.011 167.59 399.626 169.804 396.901 170.826C394.176 171.848 392.813 170.485 392.813 170.485C392.813 170.485 386.342 164.353 380.551 164.183C375.496 164.035 371.61 169.594 370.704 171.01C371.78 175.389 372.882 180.185 373.908 182.236C375.441 185.302 378.677 188.197 383.446 188.197C388.215 188.197 393.494 184.28 396.049 181.725C398.604 179.171 403.032 175.594 405.417 170.996C407.801 166.398 405.757 154.817 406.098 151.581Z" fill="#263238" stroke="#263238" stroke-miterlimit="10" stroke-linecap="round" stroke-linejoin="round"/>
<path d="M388.725 175.595C388.725 175.595 385.149 170.485 381.743 169.634C378.336 168.782 374.76 175.425 375.952 176.616C377.144 177.808 378.847 173.381 382.084 174.744C385.319 176.105 387.192 178.32 388.725 175.595Z" fill="white" stroke="#263238" stroke-miterlimit="10" stroke-linecap="round" stroke-linejoin="round"/>
<path d="M367.776 120.754C367.776 120.754 362.667 119.221 359.431 120.924C356.195 122.627 354.662 126.374 354.662 126.374L361.305 126.885L364.371 128.418C364.371 128.418 363.008 128.418 362.327 130.291C361.646 132.165 361.135 134.379 361.135 134.379C361.135 134.379 363.52 133.016 367.267 132.506C371.013 131.995 378.337 129.781 378.337 129.781L379.189 135.402C379.189 135.402 383.447 132.677 386.854 131.655C390.259 130.633 392.303 128.42 392.303 128.42C392.303 128.42 401.16 131.826 400.989 133.358C400.819 134.891 397.753 138.638 398.775 139.83C399.797 141.022 402.522 143.577 402.522 143.577L412.74 149.368C412.74 149.368 416.487 143.577 418.361 134.38C420.235 125.184 411.718 115.305 404.566 112.58C397.413 109.855 392.132 110.877 387.705 111.047C383.277 111.217 377.145 109.855 377.145 109.855L381.233 114.113C381.233 114.113 377.316 115.646 375.612 115.987C373.909 116.328 371.013 117.179 370.332 116.839C369.651 116.498 367.267 114.966 367.267 114.966C367.267 114.966 366.074 120.073 367.776 120.754Z" fill="#263238" stroke="#263238" stroke-miterlimit="10" stroke-linecap="round" stroke-linejoin="round"/>
<path d="M408.822 158.734C408.822 158.734 411.377 157.371 412.739 155.328C414.102 153.284 418.019 145.449 413.42 143.236C409.936 141.558 407.628 144.57 406.713 146.129C406.505 147.903 406.261 150.018 406.096 151.581C405.755 154.817 407.799 166.398 405.415 170.997C403.032 175.596 398.603 179.173 396.048 181.727C395.068 182.708 393.684 183.887 392.083 184.971L396.389 186.154C396.389 186.154 397.752 190.412 401.499 195.181C405.245 199.95 408.481 203.016 408.481 203.016C408.481 203.016 409.503 196.884 412.228 183.259C414.953 169.633 412.909 161.799 412.909 161.799L408.822 158.734Z" fill="white" stroke="#263238" stroke-miterlimit="10" stroke-linecap="round" stroke-linejoin="round"/>
<path d="M396.389 186.154L402.349 187.857L399.455 192.115C399.455 192.115 397.071 188.198 396.389 186.154Z" fill="#263238" stroke="#263238" stroke-miterlimit="10" stroke-linecap="round" stroke-linejoin="round"/>
<path d="M432.347 181.592L437.287 305.104L448.354 305.895C448.354 305.895 457.839 265.975 460.606 252.34C463.373 238.704 464.361 230.008 464.163 219.14C463.966 208.271 461.397 185.742 461.397 185.742C461.397 185.742 455.665 176.059 450.725 172.699" fill="#3E007C"/>
<path d="M432.347 181.592L437.287 305.104L448.354 305.895C448.354 305.895 457.839 265.975 460.606 252.34C463.373 238.704 464.361 230.008 464.163 219.14C463.966 208.271 461.397 185.742 461.397 185.742C461.397 185.742 455.665 176.059 450.725 172.699" stroke="#263238" stroke-miterlimit="10" stroke-linecap="round" stroke-linejoin="round"/>
<path d="M454.822 204.687C455.845 201.459 456.456 199.377 456.456 199.377" stroke="#263238" stroke-miterlimit="10" stroke-linecap="round" stroke-linejoin="round"/>
<path d="M435.312 253.129C435.312 253.129 440.055 242.063 445.587 229.81C448.601 223.136 451.556 214.703 453.623 208.408" stroke="#263238" stroke-miterlimit="10" stroke-linecap="round" stroke-linejoin="round"/>
<path d="M448.455 236.398C448.144 237.248 447.844 237.965 447.563 238.506" stroke="#263238" stroke-miterlimit="10" stroke-linecap="round" stroke-linejoin="round"/>
<path d="M454.283 213.803C454.283 213.803 451.845 225.413 449.549 233.06" stroke="#263238" stroke-miterlimit="10" stroke-linecap="round" stroke-linejoin="round"/>
<path d="M437.287 294.234L450.527 294.827" stroke="#263238" stroke-miterlimit="10" stroke-linecap="round" stroke-linejoin="round"/>
<path d="M437.287 305.104C437.287 305.104 435.742 324.17 435.742 325.818C435.742 327.466 437.061 339.497 437.39 340.486C437.72 341.475 446.125 347.738 446.949 347.738C447.773 347.738 452.387 348.232 453.212 346.913C454.036 345.595 454.366 344.771 453.212 344.442C452.058 344.112 448.926 344.277 448.926 344.277L447.114 343.452C447.114 343.452 453.871 342.793 454.366 342.628C454.86 342.463 457.332 340.816 457.827 339.661C458.321 338.507 457.497 337.19 457.497 337.19C457.497 337.19 459.969 334.882 460.134 334.058C460.299 333.234 460.464 330.927 459.31 331.256C458.156 331.586 456.508 333.399 456.508 333.399H452.387C452.387 333.399 456.673 330.597 457.166 329.773C457.661 328.948 458.32 325.487 458.155 324.499C457.991 323.51 455.848 324.664 455.354 325.653C454.859 326.642 454.035 329.279 454.035 329.279L449.091 329.939L447.443 327.796C447.443 327.796 450.74 317.578 450.74 315.436C450.74 313.293 448.354 305.894 448.354 305.894L437.287 305.104Z" fill="white" stroke="#263238" stroke-miterlimit="10" stroke-linecap="round" stroke-linejoin="round"/>
<path d="M443.324 330.104C443.324 330.104 446.95 333.235 447.939 333.565C448.929 333.894 452.389 333.4 452.389 333.4" stroke="#263238" stroke-miterlimit="10" stroke-linecap="round" stroke-linejoin="round"/>
<path d="M441.181 333.729C441.181 333.729 446.784 338.672 448.268 338.672C449.751 338.672 457.497 337.19 457.497 337.19" stroke="#263238" stroke-miterlimit="10" stroke-linecap="round" stroke-linejoin="round"/>
<path d="M440.027 338.014C440.027 338.014 443.324 341.969 444.313 342.298C445.302 342.627 447.114 343.452 447.114 343.452" stroke="#263238" stroke-miterlimit="10" stroke-linecap="round" stroke-linejoin="round"/>
</svg>
