<svg width="20" height="20" viewBox="0 0 20 20" fill="none" xmlns="http://www.w3.org/2000/svg">
<path d="M18.3786 1.82482C18.6934 2.13993 18.9309 2.52112 19.0731 2.93951C19.2153 3.3579 19.2585 3.80252 19.1995 4.2397C19.1404 4.67688 18.9806 5.09515 18.7321 5.46284C18.4837 5.83052 18.1531 6.13797 17.7655 6.36191C14.9712 7.97204 11.7104 8.62725 8.49502 8.22469C5.27964 7.82214 2.29164 6.38462 0 4.13774L4.13601 0C5.50552 1.34187 7.28912 2.20255 9.20936 2.44814C11.1296 2.69374 13.0788 2.31048 14.7538 1.35798C15.324 1.0287 15.99 0.895355 16.6463 0.979083C17.3026 1.06281 17.9116 1.35882 18.3767 1.8202L18.3786 1.82482Z" fill="#9C5AFF"/>
<path d="M18.361 1.80652C17.8066 1.26353 17.055 0.958496 16.2713 0.958496C15.4875 0.958496 14.7359 1.26353 14.1816 1.80652L1.63675 14.1014C1.08271 14.6447 0.771484 15.3814 0.771484 16.1495C0.771484 16.9176 1.08271 17.6543 1.63675 18.1976C1.9111 18.4666 2.23686 18.6801 2.59542 18.8257C2.95398 18.9714 3.33832 19.0463 3.72645 19.0463C4.11459 19.0463 4.49892 18.9714 4.85748 18.8257C5.21604 18.6801 5.5418 18.4666 5.81615 18.1976L18.361 5.90266C18.6355 5.63378 18.8533 5.31451 19.0019 4.96309C19.1505 4.61167 19.227 4.235 19.227 3.85459C19.227 3.47419 19.1505 3.09752 19.0019 2.7461C18.8533 2.39468 18.6355 2.07541 18.361 1.80652Z" fill="url(#paint0_linear_3773_14968)"/>
<path d="M1.62127 18.1745C1.30644 17.8595 1.06889 17.4785 0.926601 17.0602C0.784312 16.6419 0.741021 16.1974 0.800008 15.7603C0.858995 15.3231 1.01871 14.9049 1.26706 14.5373C1.51541 14.1696 1.84587 13.8622 2.23342 13.6383C5.02795 12.0285 8.2887 11.3733 11.5041 11.7757C14.7195 12.1781 17.7077 13.6152 19.9999 15.8616L15.862 20.0002C14.4925 18.6583 12.7089 17.7977 10.7886 17.5521C8.86839 17.3065 6.91917 17.6897 5.24417 18.6422C4.67334 18.9707 4.007 19.103 3.35074 19.0183C2.69448 18.9335 2.08584 18.6366 1.62127 18.1745Z" fill="url(#paint1_linear_3773_14968)"/>
<defs>
<linearGradient id="paint0_linear_3773_14968" x1="19.0363" y1="2.71524" x2="6.43807" y2="13.2889" gradientUnits="userSpaceOnUse">
<stop stop-color="#22BFFF"/>
<stop offset="0.15" stop-color="#22BFFF" stop-opacity="0.84"/>
<stop offset="0.57" stop-color="#22BFFF" stop-opacity="0.39"/>
<stop offset="0.87" stop-color="#22BFFF" stop-opacity="0.11"/>
<stop offset="1" stop-color="#22BFFF" stop-opacity="0"/>
</linearGradient>
<linearGradient id="paint1_linear_3773_14968" x1="1.01195" y1="15.9142" x2="19.8772" y2="15.7737" gradientUnits="userSpaceOnUse">
<stop stop-color="#FFC99E"/>
<stop offset="0.67" stop-color="#FF87A4"/>
<stop offset="1" stop-color="#FF6BA6"/>
</linearGradient>
</defs>
</svg>
