<svg width="32" height="24" viewBox="0 0 32 24" fill="none" xmlns="http://www.w3.org/2000/svg">
<path d="M19.3222 3.1826C17.5645 4.36492 15.5107 4.59847 8.0931 2.42544C3.3222 1.02762 0.00583301 4.63866 1.48362e-05 9.4C-0.00289425 11.7635 0.421833 14.0507 1.42954 16.0263C2.63332 18.3839 7.63579 23.2111 8.38401 19.0828C11.4676 2.07599 12.1076 14.4817 15.3658 14.2487C17.5721 14.0909 18.0422 -0.661416 23.2204 19.7817C24.6289 25.3433 32 15.537 32 9.4C32 7.13028 31.6148 4.93104 30.6781 3.01486C28.3404 -1.76803 22.8713 0.794649 19.3222 3.1826Z" fill="url(#paint0_radial_3781_14887)"/>
<mask id="mask0_3781_14887" style="mask-type:alpha" maskUnits="userSpaceOnUse" x="0" y="0" width="32" height="22">
<path d="M19.3222 3.1826C17.5645 4.36492 15.5107 4.59847 8.0931 2.42544C3.3222 1.02762 0.00583301 4.63866 1.48362e-05 9.4C-0.00289425 11.7635 0.421833 14.0507 1.42954 16.0263C2.63332 18.3839 7.63579 23.2111 8.38401 19.0828C11.4676 2.07599 12.1076 14.4817 15.3658 14.2487C17.5721 14.0909 18.0422 -0.661416 23.2204 19.7817C24.6289 25.3433 32 15.537 32 9.4C32 7.13028 31.6148 4.93104 30.6781 3.01486C28.3404 -1.76803 22.8713 0.794649 19.3222 3.1826Z" fill="white"/>
</mask>
<g mask="url(#mask0_3781_14887)">
<path d="M3.50757 20.4233C3.50757 20.4233 6.47484 10.2891 14.3294 18.3848C21.1332 25.3972 30.213 15.8804 30.213 15.8804L29.6312 24.675L15.493 27.6454H0.714844L3.50757 20.4233Z" fill="url(#paint1_linear_3781_14887)"/>
<path d="M10.2559 -1.47528C10.2559 -1.47528 3.39048 -1.47528 4.72866 7.96002C5.34888 12.3323 4.53724 17.3272 -2.52545 19.0081C-9.58813 20.6889 -4.91148 -2.7508 -4.91148 -2.7508L13.2232 -13.0073L10.2559 -1.47528Z" fill="url(#paint2_radial_3781_14887)"/>
<path d="M16.0124 -2.89424C16.0124 -2.89424 15.3124 8.15089 22.1581 7.91967C29.0038 7.68903 32.0025 10.5522 32.0222 15.5081C32.042 20.464 41.1876 5.31506 41.1876 5.31506L29.1417 -8.49951L16.0124 -2.89424Z" fill="url(#paint3_radial_3781_14887)"/>
</g>
<circle cx="14.8508" cy="22.2957" r="1.38599" fill="#E05500"/>
<circle cx="20.3928" cy="22.2957" r="1.38599" fill="#E05500"/>
<defs>
<radialGradient id="paint0_radial_3781_14887" cx="0" cy="0" r="1" gradientUnits="userSpaceOnUse" gradientTransform="translate(16.0004 10.8734) rotate(-0.0175754) scale(28.5711 28.6009)">
<stop stop-color="#FF9900"/>
<stop offset="1" stop-color="#C41700"/>
</radialGradient>
<linearGradient id="paint1_linear_3781_14887" x1="-1.85563" y1="20.1512" x2="38.1452" y2="22.9969" gradientUnits="userSpaceOnUse">
<stop stop-color="#FF9900"/>
<stop offset="1" stop-color="#C41700"/>
</linearGradient>
<radialGradient id="paint2_radial_3781_14887" cx="0" cy="0" r="1" gradientUnits="userSpaceOnUse" gradientTransform="translate(3.39699 3.04348) rotate(-0.0435159) scale(17.547 43.4909)">
<stop stop-color="#FF9900"/>
<stop offset="1" stop-color="#C41700"/>
</radialGradient>
<radialGradient id="paint3_radial_3781_14887" cx="0" cy="0" r="1" gradientUnits="userSpaceOnUse" gradientTransform="translate(28.5902 4.0023) rotate(-0.026438) scale(22.4956 33.8747)">
<stop stop-color="#FF9900"/>
<stop offset="1" stop-color="#C41700"/>
</radialGradient>
</defs>
</svg>
