<svg width="40" height="42" viewBox="0 0 40 42" fill="none" xmlns="http://www.w3.org/2000/svg">
<rect width="6.6575" height="27.0215" rx="3.32875" transform="matrix(0.866028 0.499995 -0.500005 0.866023 13.6426 3.61719)" fill="#FF546D"/>
<rect width="6.9396" height="28.7154" rx="3.4698" transform="matrix(0.866028 0.499995 -0.500005 0.866023 33.2764 12.9805)" fill="#00D4E6"/>
<path d="M6.1975 29.4352C4.15947 28.7989 1.51616 28.2857 1.28888 26.1628C1.21336 25.4575 1.35273 24.7227 1.73457 24.0613C2.19205 23.269 2.91486 22.7253 3.72599 22.4778C5.51315 21.9324 7.46285 22.8307 9.25787 23.3497C11.0222 23.8597 13.5791 24.8335 16.7956 26.6905C20.0121 28.5475 22.1339 30.275 23.4578 31.5479C24.8047 32.8429 26.5576 34.0822 26.9788 35.9026C27.17 36.7288 27.0606 37.6266 26.6031 38.419C26.2212 39.0803 25.6546 39.5684 25.006 39.8557C23.0538 40.7203 21.2877 38.6878 19.7177 37.2409C18.4143 36.0399 16.3913 34.4702 13.3258 32.7004C10.2602 30.9305 7.88938 29.9634 6.1975 29.4352Z" fill="#6D86F5"/>
<path d="M20.2817 5.04249C18.7116 3.59566 16.9455 1.56312 14.9934 2.42774C14.3448 2.715 13.7781 3.20309 13.3963 3.86444C12.9388 4.65681 12.8294 5.55461 13.0206 6.38082C13.4418 8.20124 15.1947 9.44052 16.5416 10.7356C17.8655 12.0084 19.9873 13.7359 23.2038 15.5929C26.4203 17.4499 28.9772 18.4237 30.7415 18.9338C32.5365 19.4527 34.4862 20.3511 36.2734 19.8057C37.0845 19.5581 37.8073 19.0145 38.2648 18.2221C38.6466 17.5607 38.786 16.8259 38.7105 16.1206C38.4832 13.9977 35.8399 13.4845 33.8019 12.8483C32.11 12.32 29.7391 11.3529 26.6736 9.58308C23.6081 7.81322 21.5851 6.24357 20.2817 5.04249Z" fill="#FFAA50"/>
<rect width="6.6575" height="15.273" rx="3.32875" transform="matrix(0.866028 0.499995 -0.500005 0.866023 14.8174 1.58203)" fill="#FF546D"/>
<rect width="6.9396" height="16.8814" rx="3.4698" transform="matrix(0.866028 0.499995 -0.500005 0.866023 27.3584 23.2305)" fill="#00D4E6"/>
</svg>
