<svg width="20" height="20" viewBox="0 0 20 20" fill="none" xmlns="http://www.w3.org/2000/svg">
<path d="M13.338 5.72961C16.8468 5.75385 19.7362 8.68909 19.6878 12.1817C19.642 15.6609 16.7633 18.5073 13.2868 18.5154C9.79683 18.5235 6.88314 15.5855 6.90738 12.0875C6.93161 8.55444 9.81299 5.70807 13.338 5.72961ZM18.1582 12.1279C18.1636 9.41347 15.9662 7.2107 13.2653 7.22147C10.6155 7.23224 8.43424 9.42155 8.40731 12.0983C8.37769 14.74 10.5912 16.9778 13.2356 16.9858C15.9797 16.9966 18.1528 14.8531 18.1582 12.1279Z" fill="#FB9A13"/>
<path d="M9.25566 19.544C5.62027 18.7604 2.81699 15.0712 2.70389 11.1799C2.5854 7.14871 5.33213 3.42446 9.23411 2.32038C12.8076 1.31055 17.1646 2.77009 18.6942 5.54376C14.6183 1.75045 8.17502 2.29114 5.16518 7.12448C2.91662 10.7356 3.48482 16.668 9.25566 19.544Z" fill="#FB9A13"/>
<path d="M7.77296 20C3.62866 19.1067 0.432945 14.901 0.304011 10.465C0.168938 5.86947 3.30019 1.62387 7.7484 0.365232C11.8221 -0.785962 16.7891 0.877897 18.5328 4.03984C13.8863 -0.284488 6.54105 0.331899 3.10986 5.84185C0.54653 9.95852 1.19427 16.7214 7.77296 20Z" fill="#FB9A13"/>
<path d="M18.5457 6.95778C14.4849 3.35471 9.56498 4.86811 7.46723 7.78988C6.10463 9.69105 5.70878 11.7834 6.29852 14.0266C6.88018 16.232 8.32356 17.767 10.5452 18.8711C7.52916 18.3433 5.10019 15.3542 4.81744 12.0823C4.5293 8.71892 6.71591 5.40937 9.97968 4.27298C13.1223 3.17698 16.8061 4.31607 18.5457 6.95778Z" fill="#FB9A13"/>
<path d="M13.2974 14.5597C14.6434 14.5597 15.7345 13.4685 15.7345 12.1226C15.7345 10.7767 14.6434 9.68555 13.2974 9.68555C11.9515 9.68555 10.8604 10.7767 10.8604 12.1226C10.8604 13.4685 11.9515 14.5597 13.2974 14.5597Z" fill="#FB9A13"/>
</svg>
