<svg width="70" height="22" viewBox="0 0 70 22" fill="none" xmlns="http://www.w3.org/2000/svg">
<g clip-path="url(#clip0_4187_37335)">
<path d="M13.8641 11.313C13.8641 10.8372 13.8256 10.3587 13.7432 9.89062H7.14062V12.5862H10.9216C10.7647 13.4556 10.2606 14.2246 9.52241 14.7133V16.4624H11.7782C13.1028 15.2432 13.8641 13.4427 13.8641 11.313Z" fill="#4285F4"/>
<path d="M7.13916 18.1528C9.02709 18.1528 10.6192 17.5329 11.7793 16.4629L9.52351 14.7139C8.89591 15.1408 8.0857 15.3826 7.14174 15.3826C5.31554 15.3826 3.76713 14.1506 3.21155 12.4941H0.883789V14.2972C2.0721 16.661 4.49246 18.1528 7.13916 18.1528Z" fill="#27AE60"/>
<path d="M3.21044 12.4949C2.91722 11.6255 2.91722 10.6841 3.21044 9.81477V8.01172H0.885251C-0.107584 9.98967 -0.107584 12.32 0.885251 14.298L3.21044 12.4949Z" fill="#FBBC04"/>
<path d="M7.13916 6.92298C8.13714 6.90755 9.10168 7.28307 9.82445 7.9724L11.823 5.97387C10.5575 4.78555 8.87791 4.13224 7.13916 4.15282C4.49246 4.15282 2.0721 5.64464 0.883789 8.01098L3.20898 9.81403C3.76198 8.15502 5.31296 6.92298 7.13916 6.92298Z" fill="#EA4335"/>
</g>
<path d="M27.726 16.7923C26.6713 16.7923 25.7613 16.5823 24.996 16.1623C24.2307 15.733 23.638 15.1357 23.218 14.3703C22.8073 13.605 22.602 12.7043 22.602 11.6683C22.602 10.6417 22.8073 9.73634 23.218 8.95234C23.638 8.15901 24.2167 7.54301 24.954 7.10434C25.6913 6.65634 26.5407 6.43234 27.502 6.43234C28.2673 6.43234 28.958 6.57701 29.574 6.86634C30.1993 7.14634 30.708 7.53834 31.1 8.04234C31.5013 8.54634 31.7393 9.12968 31.814 9.79234H30.33C30.2367 9.14834 29.938 8.63968 29.434 8.26634C28.93 7.88368 28.3 7.69234 27.544 7.69234C26.8533 7.69234 26.2513 7.85568 25.738 8.18234C25.2247 8.50901 24.8233 8.96634 24.534 9.55434C24.254 10.1423 24.114 10.8377 24.114 11.6403C24.114 12.4523 24.2587 13.1523 24.548 13.7403C24.8373 14.319 25.2573 14.767 25.808 15.0843C26.368 15.3923 27.04 15.5463 27.824 15.5463C28.384 15.5463 28.8787 15.467 29.308 15.3083C29.7373 15.1497 30.1107 14.9163 30.428 14.6083L31.87 15.1543C31.3473 15.6957 30.7453 16.1063 30.064 16.3863C29.3827 16.657 28.6033 16.7923 27.726 16.7923ZM30.386 15.1543V12.0603L30.82 12.4943H27.81V11.2623H31.87V15.1543H30.386ZM36.8351 16.7923C36.1071 16.7923 35.4677 16.6337 34.9171 16.3163C34.3664 15.9897 33.9371 15.5463 33.6291 14.9863C33.3211 14.417 33.1671 13.773 33.1671 13.0543C33.1671 12.3263 33.3211 11.687 33.6291 11.1363C33.9464 10.5857 34.3757 10.1563 34.9171 9.84834C35.4677 9.53101 36.1071 9.37234 36.8351 9.37234C37.5724 9.37234 38.2164 9.53101 38.7671 9.84834C39.3177 10.1563 39.7424 10.5857 40.0411 11.1363C40.3491 11.687 40.5031 12.3263 40.5031 13.0543C40.5031 13.773 40.3491 14.417 40.0411 14.9863C39.7424 15.5463 39.3177 15.9897 38.7671 16.3163C38.2164 16.6337 37.5724 16.7923 36.8351 16.7923ZM36.8351 15.6023C37.2737 15.6023 37.6517 15.495 37.9691 15.2803C38.2957 15.0657 38.5524 14.767 38.7391 14.3843C38.9257 14.0017 39.0191 13.5537 39.0191 13.0403C39.0191 12.275 38.8137 11.673 38.4031 11.2343C38.0017 10.7863 37.4791 10.5623 36.8351 10.5623C36.2004 10.5623 35.6777 10.7863 35.2671 11.2343C34.8657 11.6823 34.6651 12.2843 34.6651 13.0403C34.6651 13.5537 34.7537 14.0017 34.9311 14.3843C35.1177 14.767 35.3744 15.0657 35.7011 15.2803C36.0371 15.495 36.4151 15.6023 36.8351 15.6023ZM45.1066 16.7923C44.3786 16.7923 43.7392 16.6337 43.1886 16.3163C42.6379 15.9897 42.2086 15.5463 41.9006 14.9863C41.5926 14.417 41.4386 13.773 41.4386 13.0543C41.4386 12.3263 41.5926 11.687 41.9006 11.1363C42.2179 10.5857 42.6472 10.1563 43.1886 9.84834C43.7392 9.53101 44.3786 9.37234 45.1066 9.37234C45.8439 9.37234 46.4879 9.53101 47.0386 9.84834C47.5892 10.1563 48.0139 10.5857 48.3126 11.1363C48.6206 11.687 48.7746 12.3263 48.7746 13.0543C48.7746 13.773 48.6206 14.417 48.3126 14.9863C48.0139 15.5463 47.5892 15.9897 47.0386 16.3163C46.4879 16.6337 45.8439 16.7923 45.1066 16.7923ZM45.1066 15.6023C45.5452 15.6023 45.9232 15.495 46.2406 15.2803C46.5672 15.0657 46.8239 14.767 47.0106 14.3843C47.1972 14.0017 47.2906 13.5537 47.2906 13.0403C47.2906 12.275 47.0852 11.673 46.6746 11.2343C46.2732 10.7863 45.7506 10.5623 45.1066 10.5623C44.4719 10.5623 43.9492 10.7863 43.5386 11.2343C43.1372 11.6823 42.9366 12.2843 42.9366 13.0403C42.9366 13.5537 43.0252 14.0017 43.2026 14.3843C43.3892 14.767 43.6459 15.0657 43.9726 15.2803C44.3086 15.495 44.6866 15.6023 45.1066 15.6023ZM53.2934 19.6623C52.3974 19.6623 51.6554 19.457 51.0674 19.0463C50.4887 18.645 50.1387 18.1083 50.0174 17.4363H51.3894C51.4827 17.7443 51.6881 17.987 52.0054 18.1643C52.3321 18.3417 52.7661 18.4303 53.3074 18.4303C54.0074 18.4303 54.5301 18.2577 54.8754 17.9123C55.2207 17.567 55.3934 17.0537 55.3934 16.3723V14.8323L55.5194 14.8603C55.3794 15.4017 55.0761 15.831 54.6094 16.1483C54.1427 16.4563 53.5827 16.6103 52.9294 16.6103C52.3041 16.6103 51.7534 16.461 51.2774 16.1623C50.8014 15.8637 50.4327 15.4483 50.1714 14.9163C49.9101 14.375 49.7794 13.745 49.7794 13.0263C49.7794 12.2983 49.9147 11.659 50.1854 11.1083C50.4561 10.5577 50.8341 10.133 51.3194 9.83434C51.8141 9.53568 52.3881 9.38634 53.0414 9.38634C53.7134 9.38634 54.2687 9.54968 54.7074 9.87634C55.1554 10.1937 55.4401 10.6463 55.5614 11.2343L55.4494 11.2483V9.51234H56.8354V16.3583C56.8354 17.385 56.5181 18.1923 55.8834 18.7803C55.2581 19.3683 54.3947 19.6623 53.2934 19.6623ZM53.3634 15.4343C53.9887 15.4343 54.4881 15.215 54.8614 14.7763C55.2441 14.3377 55.4354 13.7357 55.4354 12.9703C55.4354 12.2237 55.2441 11.6357 54.8614 11.2063C54.4881 10.777 53.9841 10.5623 53.3494 10.5623C52.7147 10.5623 52.2107 10.7817 51.8374 11.2203C51.4641 11.6497 51.2774 12.247 51.2774 13.0123C51.2774 13.759 51.4641 14.3517 51.8374 14.7903C52.2201 15.2197 52.7287 15.4343 53.3634 15.4343ZM58.8833 16.6523V6.57234H60.3393V16.6523H58.8833ZM65.4633 16.7923C64.7447 16.7923 64.11 16.6337 63.5593 16.3163C63.018 15.999 62.5933 15.5603 62.2853 15.0003C61.9773 14.4403 61.8233 13.7963 61.8233 13.0683C61.8233 12.331 61.9727 11.687 62.2713 11.1363C62.5793 10.5763 63.0087 10.1423 63.5593 9.83434C64.11 9.52634 64.74 9.37234 65.4493 9.37234C66.14 9.37234 66.7373 9.52168 67.2413 9.82034C67.7547 10.1097 68.1467 10.5157 68.4173 11.0383C68.6973 11.561 68.8373 12.1817 68.8373 12.9003C68.8373 13.0123 68.8327 13.1197 68.8233 13.2223C68.8233 13.3157 68.814 13.4137 68.7953 13.5163H62.8033V12.4243H67.7733L67.4093 12.8583C67.4093 12.093 67.2367 11.5097 66.8913 11.1083C66.546 10.707 66.0653 10.5063 65.4493 10.5063C64.7867 10.5063 64.2593 10.735 63.8673 11.1923C63.4847 11.6403 63.2933 12.2657 63.2933 13.0683C63.2933 13.8803 63.4847 14.515 63.8673 14.9723C64.2593 15.4297 64.8007 15.6583 65.4913 15.6583C65.9113 15.6583 66.2753 15.5743 66.5833 15.4063C66.8913 15.229 67.12 14.9723 67.2693 14.6363H68.6413C68.408 15.3083 68.0113 15.8357 67.4513 16.2183C66.9007 16.601 66.238 16.7923 65.4633 16.7923Z" fill="#303335"/>
<defs>
<clipPath id="clip0_4187_37335">
<rect width="14" height="14" fill="white" transform="translate(0 4.15234)"/>
</clipPath>
</defs>
</svg>
